<svg width="30" height="30" viewBox="0 0 30 30" fill="none" xmlns="http://www.w3.org/2000/svg">
<mask id="mask0_1019_1852" style="mask-type:alpha" maskUnits="userSpaceOnUse" x="0" y="0" width="30" height="30">
<rect width="30" height="30" fill="#A0AEC0"/>
</mask>
<g mask="url(#mask0_1019_1852)">
<path d="M19.8125 20C19.5208 20 19.2708 19.8958 19.0625 19.6875C18.8542 19.4792 18.75 19.2292 18.75 18.9375V14.8125C18.75 14.5208 18.8542 14.2708 19.0625 14.0625C19.2708 13.8542 19.5208 13.75 19.8125 13.75H20V12.5C20 11.8125 20.2448 11.224 20.7344 10.7344C21.224 10.2448 21.8125 10 22.5 10C23.1875 10 23.776 10.2448 24.2656 10.7344C24.7552 11.224 25 11.8125 25 12.5V13.75H25.1875C25.4792 13.75 25.7292 13.8542 25.9375 14.0625C26.1458 14.2708 26.25 14.5208 26.25 14.8125V18.9375C26.25 19.2292 26.1458 19.4792 25.9375 19.6875C25.7292 19.8958 25.4792 20 25.1875 20H19.8125ZM21.25 13.75H23.75V12.5C23.75 12.1458 23.6302 11.849 23.3906 11.6094C23.151 11.3698 22.8542 11.25 22.5 11.25C22.1458 11.25 21.849 11.3698 21.6094 11.6094C21.3698 11.849 21.25 12.1458 21.25 12.5V13.75ZM8.75 28.75C8.0625 28.75 7.47396 28.5052 6.98438 28.0156C6.49479 27.526 6.25 26.9375 6.25 26.25V3.75C6.25 3.0625 6.49479 2.47396 6.98438 1.98438C7.47396 1.49479 8.0625 1.25 8.75 1.25H21.25C21.9375 1.25 22.526 1.49479 23.0156 1.98438C23.5052 2.47396 23.75 3.0625 23.75 3.75V8.75H21.25V7.5H8.75V22.5H21.25V21.25H23.75V26.25C23.75 26.9375 23.5052 27.526 23.0156 28.0156C22.526 28.5052 21.9375 28.75 21.25 28.75H8.75Z" fill="#A0AEC0"/>
</g>
</svg>
