<svg width="48" height="49" viewBox="0 0 48 49" fill="none" xmlns="http://www.w3.org/2000/svg">
<rect y="0.5" width="48" height="48" rx="8" fill="#FFCDCD"/>
<path d="M24 30.5C24.2833 30.5 24.5208 30.4042 24.7125 30.2125C24.9042 30.0208 25 29.7833 25 29.5C25 29.2167 24.9042 28.9792 24.7125 28.7875C24.5208 28.5958 24.2833 28.5 24 28.5C23.7167 28.5 23.4792 28.5958 23.2875 28.7875C23.0958 28.9792 23 29.2167 23 29.5C23 29.7833 23.0958 30.0208 23.2875 30.2125C23.4792 30.4042 23.7167 30.5 24 30.5ZM24 26.5C24.2833 26.5 24.5208 26.4042 24.7125 26.2125C24.9042 26.0208 25 25.7833 25 25.5V21.5C25 21.2167 24.9042 20.9792 24.7125 20.7875C24.5208 20.5958 24.2833 20.5 24 20.5C23.7167 20.5 23.4792 20.5958 23.2875 20.7875C23.0958 20.9792 23 21.2167 23 21.5V25.5C23 25.7833 23.0958 26.0208 23.2875 26.2125C23.4792 26.4042 23.7167 26.5 24 26.5ZM17 34.5C16.45 34.5 15.9792 34.3042 15.5875 33.9125C15.1958 33.5208 15 33.05 15 32.5V18.5C15 17.95 15.1958 17.4792 15.5875 17.0875C15.9792 16.6958 16.45 16.5 17 16.5H21.2C21.4167 15.9 21.7792 15.4167 22.2875 15.05C22.7958 14.6833 23.3667 14.5 24 14.5C24.6333 14.5 25.2042 14.6833 25.7125 15.05C26.2208 15.4167 26.5833 15.9 26.8 16.5H31C31.55 16.5 32.0208 16.6958 32.4125 17.0875C32.8042 17.4792 33 17.95 33 18.5V32.5C33 33.05 32.8042 33.5208 32.4125 33.9125C32.0208 34.3042 31.55 34.5 31 34.5H17ZM24 17.75C24.2167 17.75 24.3958 17.6792 24.5375 17.5375C24.6792 17.3958 24.75 17.2167 24.75 17C24.75 16.7833 24.6792 16.6042 24.5375 16.4625C24.3958 16.3208 24.2167 16.25 24 16.25C23.7833 16.25 23.6042 16.3208 23.4625 16.4625C23.3208 16.6042 23.25 16.7833 23.25 17C23.25 17.2167 23.3208 17.3958 23.4625 17.5375C23.6042 17.6792 23.7833 17.75 24 17.75Z" fill="#DD3333"/>
</svg>
