<svg width="29" height="29" viewBox="0 0 29 29" fill="none" xmlns="http://www.w3.org/2000/svg">
<mask id="mask0_936_1657" style="mask-type:alpha" maskUnits="userSpaceOnUse" x="0" y="0" width="29" height="29">
<rect x="0.257812" y="0.0859375" width="28.345" height="28.345" fill="#D9D9D9"/>
</mask>
<g mask="url(#mask0_936_1657)">
<path d="M14.4296 26.0691C12.7958 26.0691 11.2604 25.759 9.82349 25.139C8.38656 24.5189 7.13662 23.6775 6.07369 22.6145C5.01075 21.5516 4.16926 20.3016 3.54921 18.8647C2.92916 17.4278 2.61914 15.8924 2.61914 14.2587C2.61914 12.6249 2.92916 11.0895 3.54921 9.65259C4.16926 8.21566 5.01075 6.96572 6.07369 5.90279C7.13662 4.83985 8.38656 3.99836 9.82349 3.37831C11.2604 2.75827 12.7958 2.44824 14.4296 2.44824C15.709 2.44824 16.9196 2.63524 18.0613 3.00924C19.2029 3.38323 20.256 3.90486 21.2205 4.57412L19.508 6.31615C18.76 5.84374 17.9628 5.47466 17.1164 5.20893C16.27 4.94319 15.3744 4.81032 14.4296 4.81032C11.8116 4.81032 9.58236 5.73055 7.74191 7.57101C5.90145 9.41146 4.98122 11.6407 4.98122 14.2587C4.98122 16.8766 5.90145 19.1058 7.74191 20.9463C9.58236 22.7868 11.8116 23.707 14.4296 23.707C17.0475 23.707 19.2767 22.7868 21.1172 20.9463C22.9577 19.1058 23.8779 16.8766 23.8779 14.2587C23.8779 13.9043 23.8582 13.55 23.8188 13.1957C23.7795 12.8414 23.7204 12.4969 23.6417 12.1623L25.5609 10.2431C25.7774 10.873 25.9447 11.5226 26.0628 12.1918C26.1809 12.8611 26.24 13.55 26.24 14.2587C26.24 15.8924 25.9299 17.4278 25.3099 18.8647C24.6898 20.3016 23.8484 21.5516 22.7854 22.6145C21.7225 23.6775 20.4725 24.5189 19.0356 25.139C17.5987 25.759 16.0633 26.0691 14.4296 26.0691ZM12.7761 19.6914L7.75667 14.672L9.41013 13.0186L12.7761 16.3845L24.5865 4.54459L26.24 6.19805L12.7761 19.6914Z" fill="#4ADE80"/>
</g>
</svg>
