<svg width="29" height="29" viewBox="0 0 29 29" fill="none" xmlns="http://www.w3.org/2000/svg">
<mask id="mask0_936_1470" style="mask-type:alpha" maskUnits="userSpaceOnUse" x="0" y="0" width="29" height="29">
<rect x="0.257812" y="0.0859375" width="28.345" height="28.345" fill="#D9D9D9"/>
</mask>
<g mask="url(#mask0_936_1470)">
<path d="M1.43945 24.888L14.4309 2.44824L27.4224 24.888H1.43945ZM5.51405 22.5259H23.3478L14.4309 7.17241L5.51405 22.5259ZM14.4309 21.3449C14.7655 21.3449 15.046 21.2317 15.2724 21.0054C15.4988 20.779 15.6119 20.4985 15.6119 20.1639C15.6119 19.8292 15.4988 19.5487 15.2724 19.3224C15.046 19.096 14.7655 18.9828 14.4309 18.9828C14.0963 18.9828 13.8158 19.096 13.5894 19.3224C13.363 19.5487 13.2499 19.8292 13.2499 20.1639C13.2499 20.4985 13.363 20.779 13.5894 21.0054C13.8158 21.2317 14.0963 21.3449 14.4309 21.3449ZM13.2499 17.8018H15.6119V11.8966H13.2499V17.8018Z" fill="#FF7171"/>
</g>
</svg>
