<svg width="21" height="21" viewBox="0 0 21 21" fill="none" xmlns="http://www.w3.org/2000/svg">
<mask id="mask0_937_2773" style="mask-type:alpha" maskUnits="userSpaceOnUse" x="0" y="0" width="21" height="21">
<rect x="0.25" y="0.25" width="20.5" height="20.5" fill="#D9D9D9"/>
</mask>
<g mask="url(#mask0_937_2773)">
<path d="M9.23705 16.7119L3.80475 11.2916C3.69518 11.1821 3.61457 11.0593 3.56289 10.9235C3.5112 10.7876 3.48535 10.6466 3.48535 10.5006C3.48535 10.3545 3.5112 10.2135 3.56289 10.0776C3.61457 9.94179 3.69518 9.81908 3.80475 9.70952L9.23705 4.27722C9.44998 4.0643 9.71211 3.95629 10.0234 3.95319C10.3348 3.9501 10.604 4.06213 10.8312 4.28928C11.0584 4.51025 11.1755 4.7744 11.1826 5.08173C11.1898 5.38905 11.0797 5.65629 10.8526 5.88345L7.36722 9.36878H15.9228C16.2372 9.36878 16.5044 9.4788 16.7245 9.69885C16.9445 9.91889 17.0546 10.1861 17.0546 10.5006C17.0546 10.815 16.9445 11.0822 16.7245 11.3023C16.5044 11.5223 16.2372 11.6324 15.9228 11.6324H7.36722L10.8526 15.1177C11.0655 15.3306 11.1755 15.5943 11.1826 15.9087C11.1898 16.2232 11.0797 16.4909 10.8526 16.7119C10.6316 16.939 10.3639 17.0526 10.0495 17.0526C9.73502 17.0526 9.46422 16.939 9.23705 16.7119Z" fill="#5D6A83"/>
</g>
</svg>
