<svg width="23" height="23" viewBox="0 0 23 23" fill="none" xmlns="http://www.w3.org/2000/svg">
<mask id="mask0_1278_3680" style="mask-type:alpha" maskUnits="userSpaceOnUse" x="0" y="0" width="23" height="23">
<rect x="0.199219" y="0.702148" width="22.1684" height="22.1684" fill="#D9D9D9"/>
</mask>
<g mask="url(#mask0_1278_3680)">
<path d="M20.5186 21.0235L16.8239 17.3288H3.89229C3.38426 17.3288 2.94936 17.1479 2.58759 16.7861C2.22581 16.4243 2.04492 15.9894 2.04492 15.4814V4.39717C2.04492 3.88915 2.22581 3.45425 2.58759 3.09247C2.94936 2.73069 3.38426 2.5498 3.89229 2.5498H18.6712C19.1793 2.5498 19.6142 2.73069 19.9759 3.09247C20.3377 3.45425 20.5186 3.88915 20.5186 4.39717V21.0235ZM3.89229 4.39717V15.4814H17.5859L18.6712 16.5667V4.39717H3.89229Z" fill="#96A3BE"/>
<circle cx="19.1351" cy="3.9349" r="3.69474" fill="#FF7171" stroke="#F2F6FF" stroke-width="0.923684"/>
</g>
</svg>
