<svg width="20" height="20" viewBox="0 0 20 20" fill="none" xmlns="http://www.w3.org/2000/svg">
<mask id="mask0_1278_3976" style="mask-type:alpha" maskUnits="userSpaceOnUse" x="0" y="0" width="20" height="20">
<rect width="20" height="20" fill="#D9D9D9"/>
</mask>
<g mask="url(#mask0_1278_3976)">
<path d="M15.7077 18.3127C15.5966 18.3127 15.4924 18.2953 15.3952 18.2606C15.298 18.2259 15.2077 18.1668 15.1243 18.0835L10.8743 13.8335C10.791 13.7502 10.732 13.6599 10.6973 13.5627C10.6625 13.4654 10.6452 13.3613 10.6452 13.2502C10.6452 13.1391 10.6625 13.0349 10.6973 12.9377C10.732 12.8404 10.791 12.7502 10.8743 12.6668L12.6452 10.896C12.7285 10.8127 12.8188 10.7536 12.916 10.7189C13.0132 10.6842 13.1174 10.6668 13.2285 10.6668C13.3396 10.6668 13.4438 10.6842 13.541 10.7189C13.6382 10.7536 13.7285 10.8127 13.8118 10.896L18.0618 15.146C18.1452 15.2293 18.2042 15.3196 18.2389 15.4168C18.2737 15.5141 18.291 15.6182 18.291 15.7293C18.291 15.8404 18.2737 15.9446 18.2389 16.0418C18.2042 16.1391 18.1452 16.2293 18.0618 16.3127L16.291 18.0835C16.2077 18.1668 16.1174 18.2259 16.0202 18.2606C15.923 18.2953 15.8188 18.3127 15.7077 18.3127ZM15.7077 16.3335L16.3118 15.7293L13.2493 12.6668L12.6452 13.271L15.7077 16.3335ZM4.27018 18.3335C4.15907 18.3335 4.05143 18.3127 3.94727 18.271C3.8431 18.2293 3.74935 18.1668 3.66602 18.0835L1.91602 16.3335C1.83268 16.2502 1.77018 16.1564 1.72852 16.0522C1.68685 15.9481 1.66602 15.8404 1.66602 15.7293C1.66602 15.6182 1.68685 15.5141 1.72852 15.4168C1.77018 15.3196 1.83268 15.2293 1.91602 15.146L6.33268 10.7293H8.10352L8.81185 10.021L5.37435 6.5835H4.18685L1.66602 4.06266L4.02018 1.7085L6.54102 4.22933V5.41683L9.97852 8.85433L12.3952 6.43766L11.4993 5.54183L12.666 4.37516H10.3118L9.72852 3.79183L12.6868 0.833496L13.2702 1.41683V3.771L14.4368 2.60433L17.3952 5.56266C17.6313 5.79877 17.8118 6.06613 17.9368 6.36475C18.0618 6.66336 18.1243 6.97933 18.1243 7.31266C18.1243 7.646 18.0618 7.96544 17.9368 8.271C17.8118 8.57655 17.6313 8.84739 17.3952 9.0835L15.6243 7.31266L14.4577 8.47933L13.5827 7.60433L9.27018 11.9168V13.6668L4.85352 18.0835C4.77018 18.1668 4.6799 18.2293 4.58268 18.271C4.48546 18.3127 4.38129 18.3335 4.27018 18.3335ZM4.27018 16.3335L7.81185 12.7918V12.1877H7.20768L3.66602 15.7293L4.27018 16.3335ZM4.27018 16.3335L3.66602 15.7293L3.97852 16.021L4.27018 16.3335Z" fill="#96A3BE"/>
</g>
</svg>
