<svg width="24" height="24" viewBox="0 0 24 24" fill="none" xmlns="http://www.w3.org/2000/svg">
<mask id="mask0_1250_2279" style="mask-type:alpha" maskUnits="userSpaceOnUse" x="0" y="0" width="24" height="24">
<rect width="24" height="24" fill="#D9D9D9"/>
</mask>
<g mask="url(#mask0_1250_2279)">
<path d="M14.25 21.3L11.375 18.425C11.1917 18.2417 11.1 18.0167 11.1 17.75C11.1 17.4833 11.2 17.25 11.4 17.05C11.5833 16.8667 11.8167 16.7708 12.1 16.7625C12.3833 16.7542 12.6167 16.85 12.8 17.05L14.95 19.15L19.9 14.2C20.0833 14.0167 20.3125 13.925 20.5875 13.925C20.8625 13.925 21.1 14.025 21.3 14.225C21.5 14.425 21.5958 14.6667 21.5875 14.95C21.5792 15.2333 21.475 15.475 21.275 15.675L15.65 21.3C15.4667 21.4833 15.2333 21.575 14.95 21.575C14.6667 21.575 14.4333 21.4833 14.25 21.3ZM4 20C3.45 20 2.97917 19.8042 2.5875 19.4125C2.19583 19.0208 2 18.55 2 18V6C2 5.45 2.19583 4.97917 2.5875 4.5875C2.97917 4.19583 3.45 4 4 4H20C20.55 4 21.0208 4.19583 21.4125 4.5875C21.8042 4.97917 22 5.45 22 6V12H19.275L14.95 16.325L14.25 15.625C13.6667 15.0417 12.9583 14.75 12.125 14.75C11.2917 14.75 10.5833 15.0417 10 15.625C9.41667 16.2083 9.12083 16.9125 9.1125 17.7375C9.10417 18.5625 9.39167 19.2667 9.975 19.85L10.125 20H4ZM4 12H20V8H4V12Z" fill="#5D6A83"/>
</g>
</svg>
