<svg width="20" height="21" viewBox="0 0 20 21" fill="none" xmlns="http://www.w3.org/2000/svg">
<mask id="mask0_948_1800" style="mask-type:alpha" maskUnits="userSpaceOnUse" x="0" y="0" width="20" height="21">
<rect y="0.5" width="20" height="20" fill="#D9D9D9"/>
</mask>
<g mask="url(#mask0_948_1800)">
<path d="M9.125 13.3753L12.0208 10.4795C12.1875 10.3128 12.3889 10.2295 12.625 10.2295C12.8611 10.2295 13.0625 10.3128 13.2292 10.4795C13.3958 10.6462 13.4792 10.8475 13.4792 11.0837C13.4792 11.3198 13.3958 11.5212 13.2292 11.6878L9.70833 15.2087C9.54167 15.3753 9.34722 15.4587 9.125 15.4587C8.90278 15.4587 8.70833 15.3753 8.54167 15.2087L6.77083 13.4378C6.60417 13.2712 6.52083 13.0698 6.52083 12.8337C6.52083 12.5975 6.60417 12.3962 6.77083 12.2295C6.9375 12.0628 7.13889 11.9795 7.375 11.9795C7.61111 11.9795 7.8125 12.0628 7.97917 12.2295L9.125 13.3753ZM4.16667 18.8337C3.70833 18.8337 3.31597 18.6705 2.98958 18.3441C2.66319 18.0177 2.5 17.6253 2.5 17.167V5.50033C2.5 5.04199 2.66319 4.64963 2.98958 4.32324C3.31597 3.99685 3.70833 3.83366 4.16667 3.83366H5V3.00033C5 2.76421 5.07986 2.5663 5.23958 2.40658C5.39931 2.24685 5.59722 2.16699 5.83333 2.16699C6.06944 2.16699 6.26736 2.24685 6.42708 2.40658C6.58681 2.5663 6.66667 2.76421 6.66667 3.00033V3.83366H13.3333V3.00033C13.3333 2.76421 13.4132 2.5663 13.5729 2.40658C13.7326 2.24685 13.9306 2.16699 14.1667 2.16699C14.4028 2.16699 14.6007 2.24685 14.7604 2.40658C14.9201 2.5663 15 2.76421 15 3.00033V3.83366H15.8333C16.2917 3.83366 16.684 3.99685 17.0104 4.32324C17.3368 4.64963 17.5 5.04199 17.5 5.50033V17.167C17.5 17.6253 17.3368 18.0177 17.0104 18.3441C16.684 18.6705 16.2917 18.8337 15.8333 18.8337H4.16667ZM4.16667 17.167H15.8333V8.83366H4.16667V17.167ZM4.16667 7.16699H15.8333V5.50033H4.16667V7.16699Z" fill="#96A3BE"/>
</g>
</svg>
