<svg width="20" height="21" viewBox="0 0 20 21" fill="none" xmlns="http://www.w3.org/2000/svg">
<mask id="mask0_948_1815" style="mask-type:alpha" maskUnits="userSpaceOnUse" x="0" y="0" width="20" height="21">
<rect y="0.5" width="20" height="20" fill="#D9D9D9"/>
</mask>
<g mask="url(#mask0_948_1815)">
<path d="M4.16667 18C3.70833 18 3.31597 17.8368 2.98958 17.5104C2.66319 17.184 2.5 16.7917 2.5 16.3333V4.66667C2.5 4.20833 2.66319 3.81597 2.98958 3.48958C3.31597 3.16319 3.70833 3 4.16667 3H15.8333C16.2917 3 16.684 3.16319 17.0104 3.48958C17.3368 3.81597 17.5 4.20833 17.5 4.66667V16.3333C17.5 16.7917 17.3368 17.184 17.0104 17.5104C16.684 17.8368 16.2917 18 15.8333 18H4.16667ZM4.16667 16.3333H15.8333V4.66667H4.16667V16.3333ZM6.66667 14.6667C6.90278 14.6667 7.10069 14.5868 7.26042 14.4271C7.42014 14.2674 7.5 14.0694 7.5 13.8333C7.5 13.5972 7.42014 13.3993 7.26042 13.2396C7.10069 13.0799 6.90278 13 6.66667 13C6.43056 13 6.23264 13.0799 6.07292 13.2396C5.91319 13.3993 5.83333 13.5972 5.83333 13.8333C5.83333 14.0694 5.91319 14.2674 6.07292 14.4271C6.23264 14.5868 6.43056 14.6667 6.66667 14.6667ZM6.66667 11.3333C6.90278 11.3333 7.10069 11.2535 7.26042 11.0938C7.42014 10.934 7.5 10.7361 7.5 10.5C7.5 10.2639 7.42014 10.066 7.26042 9.90625C7.10069 9.74653 6.90278 9.66667 6.66667 9.66667C6.43056 9.66667 6.23264 9.74653 6.07292 9.90625C5.91319 10.066 5.83333 10.2639 5.83333 10.5C5.83333 10.7361 5.91319 10.934 6.07292 11.0938C6.23264 11.2535 6.43056 11.3333 6.66667 11.3333ZM6.66667 8C6.90278 8 7.10069 7.92014 7.26042 7.76042C7.42014 7.60069 7.5 7.40278 7.5 7.16667C7.5 6.93056 7.42014 6.73264 7.26042 6.57292C7.10069 6.41319 6.90278 6.33333 6.66667 6.33333C6.43056 6.33333 6.23264 6.41319 6.07292 6.57292C5.91319 6.73264 5.83333 6.93056 5.83333 7.16667C5.83333 7.40278 5.91319 7.60069 6.07292 7.76042C6.23264 7.92014 6.43056 8 6.66667 8ZM10 14.6667H13.3333C13.5694 14.6667 13.7674 14.5868 13.9271 14.4271C14.0868 14.2674 14.1667 14.0694 14.1667 13.8333C14.1667 13.5972 14.0868 13.3993 13.9271 13.2396C13.7674 13.0799 13.5694 13 13.3333 13H10C9.76389 13 9.56597 13.0799 9.40625 13.2396C9.24653 13.3993 9.16667 13.5972 9.16667 13.8333C9.16667 14.0694 9.24653 14.2674 9.40625 14.4271C9.56597 14.5868 9.76389 14.6667 10 14.6667ZM10 11.3333H13.3333C13.5694 11.3333 13.7674 11.2535 13.9271 11.0938C14.0868 10.934 14.1667 10.7361 14.1667 10.5C14.1667 10.2639 14.0868 10.066 13.9271 9.90625C13.7674 9.74653 13.5694 9.66667 13.3333 9.66667H10C9.76389 9.66667 9.56597 9.74653 9.40625 9.90625C9.24653 10.066 9.16667 10.2639 9.16667 10.5C9.16667 10.7361 9.24653 10.934 9.40625 11.0938C9.56597 11.2535 9.76389 11.3333 10 11.3333ZM10 8H13.3333C13.5694 8 13.7674 7.92014 13.9271 7.76042C14.0868 7.60069 14.1667 7.40278 14.1667 7.16667C14.1667 6.93056 14.0868 6.73264 13.9271 6.57292C13.7674 6.41319 13.5694 6.33333 13.3333 6.33333H10C9.76389 6.33333 9.56597 6.41319 9.40625 6.57292C9.24653 6.73264 9.16667 6.93056 9.16667 7.16667C9.16667 7.40278 9.24653 7.60069 9.40625 7.76042C9.56597 7.92014 9.76389 8 10 8Z" fill="#96A3BE"/>
</g>
</svg>
