<svg width="200" height="160" viewBox="0 0 200 160" fill="none" xmlns="http://www.w3.org/2000/svg">
<rect width="200" height="160" fill="#F2F6FF"/>
<path fill-rule="evenodd" clip-rule="evenodd" d="M165.6 52C168.692 52 171.2 54.5072 171.2 57.6C171.2 60.6928 168.692 63.2 165.6 63.2H133.6C136.692 63.2 139.2 65.7072 139.2 68.8C139.2 71.8928 136.692 74.4 133.6 74.4H151.2C154.292 74.4 156.8 76.9072 156.8 80C156.8 83.0928 154.292 85.6 151.2 85.6H143.06C139.161 85.6 136 88.1072 136 91.2C136 93.2619 137.6 95.1285 140.8 96.8C143.892 96.8 146.4 99.3072 146.4 102.4C146.4 105.493 143.892 108 140.8 108H74.3996C71.3068 108 68.7996 105.493 68.7996 102.4C68.7996 99.3072 71.3068 96.8 74.3996 96.8H43.1996C40.1068 96.8 37.5996 94.2928 37.5996 91.2C37.5996 88.1072 40.1068 85.6 43.1996 85.6H75.1996C78.2924 85.6 80.7996 83.0928 80.7996 80C80.7996 76.9072 78.2924 74.4 75.1996 74.4H55.1996C52.1068 74.4 49.5996 71.8928 49.5996 68.8C49.5996 65.7072 52.1068 63.2 55.1996 63.2H87.1996C84.1068 63.2 81.5996 60.6928 81.5996 57.6C81.5996 54.5072 84.1068 52 87.1996 52H165.6ZM165.6 74.4C168.692 74.4 171.2 76.9072 171.2 80C171.2 83.0928 168.692 85.6 165.6 85.6C162.507 85.6 160 83.0928 160 80C160 76.9072 162.507 74.4 165.6 74.4Z" fill="#D8E3F8"/>
<path d="M96.3996 106.4C111.201 106.4 123.2 94.401 123.2 79.5998C123.2 64.7986 111.201 52.7998 96.3996 52.7998C81.5984 52.7998 69.5996 64.7986 69.5996 79.5998C69.5996 94.401 81.5984 106.4 96.3996 106.4Z" fill="#F3F7FF" stroke="#96A3BE" stroke-width="2.5"/>
<path fill-rule="evenodd" clip-rule="evenodd" d="M92.1049 100.395C93.5119 100.655 94.9433 100.79 96.3992 100.8C108.108 100.8 117.599 91.3083 117.599 79.5999C117.599 67.8915 108.108 58.3999 96.3992 58.3999C93.3915 58.3999 90.5301 59.0262 87.9383 60.1556C83.4343 62.1182 79.7445 65.5998 77.516 69.9534C76.0348 72.8471 75.1992 76.1259 75.1992 79.5999C75.1992 82.7519 75.8871 85.7432 77.1209 88.432C78.0018 90.3516 79.1609 92.1169 80.5467 93.6764" fill="white"/>
<path d="M92.1049 100.395C93.5119 100.655 94.9433 100.79 96.3992 100.8C108.108 100.8 117.599 91.3083 117.599 79.5999C117.599 67.8915 108.108 58.3999 96.3992 58.3999C93.3915 58.3999 90.5301 59.0262 87.9383 60.1556C83.4343 62.1182 79.7445 65.5998 77.516 69.9534C76.0348 72.8471 75.1992 76.1259 75.1992 79.5999C75.1992 82.7519 75.8871 85.7432 77.1209 88.432C78.0018 90.3516 79.1609 92.1169 80.5467 93.6764" stroke="#96A3BE" stroke-width="2.5" stroke-linecap="round"/>
<path d="M83.0371 96.0596C84.7556 97.4564 86.6971 98.5894 88.7999 99.3971" stroke="#96A3BE" stroke-width="2.5" stroke-linecap="round"/>
<path d="M118.4 100.8L123.2 105.6" stroke="#96A3BE" stroke-width="2.5"/>
<path fill-rule="evenodd" clip-rule="evenodd" d="M122.425 104.824C120.911 106.338 120.911 108.793 122.425 110.307L131.293 119.176C132.807 120.69 135.262 120.69 136.776 119.176C138.29 117.661 138.29 115.207 136.776 113.692L127.908 104.824C126.394 103.31 123.939 103.31 122.425 104.824Z" fill="#E8F0FE" stroke="#96A3BE" stroke-width="2.5"/>
<path d="M126.4 106.4L135.2 115.2" stroke="white" stroke-width="2.5" stroke-linecap="round"/>
<path fill-rule="evenodd" clip-rule="evenodd" d="M91.2 70.3998C91.2 79.6782 98.7216 87.1998 108 87.1998C109.823 87.1998 111.578 86.9096 113.221 86.3727C110.539 93.0295 104.018 97.7284 96.4 97.7284C86.3879 97.7284 78.2715 89.6119 78.2715 79.5998C78.2715 70.5275 84.9358 63.0116 93.636 61.6807C92.0904 64.2233 91.2 67.2076 91.2 70.3998Z" fill="#E8F0FE"/>
<path d="M96.7996 64.7998C95.7809 64.7998 94.7856 64.9 93.823 65.0911M90.9154 65.9807C85.4427 68.2805 81.5996 73.6913 81.5996 79.9998" stroke="#95ADFF" stroke-width="2.5" stroke-linecap="round"/>
<path d="M139.341 79.822H132.801M144.401 73.6001H130.66H144.401ZM150.001 73.6001H148.224H150.001Z" stroke="#95ADFF" stroke-width="2.5" stroke-linecap="round" stroke-linejoin="round"/>
<path d="M67.3398 97.4218H60.7992M63.5992 90.3999H49.8586H63.5992ZM45.1992 90.3999H41.8223H45.1992Z" stroke="#95ADFF" stroke-width="2.5" stroke-linecap="round" stroke-linejoin="round"/>
</svg>
