<svg width="92" height="74" viewBox="0 0 92 74" fill="none" xmlns="http://www.w3.org/2000/svg">
<rect width="91.6591" height="74" fill="white"/>
<path fill-rule="evenodd" clip-rule="evenodd" d="M75.8942 24.0498C77.3116 24.0498 78.4607 25.2094 78.4607 26.6398C78.4607 28.0702 77.3116 29.2298 75.8942 29.2298H61.2288C62.6462 29.2298 63.7952 30.3894 63.7952 31.8198C63.7952 33.2502 62.6462 34.4098 61.2288 34.4098H69.2948C70.7122 34.4098 71.8612 35.5694 71.8612 36.9998C71.8612 38.4302 70.7122 39.5898 69.2948 39.5898H65.5647C63.7775 39.5898 62.3287 40.7494 62.3287 42.1798C62.3287 43.1334 63.062 43.9968 64.5285 44.7698C65.9459 44.7698 67.095 45.9294 67.095 47.3598C67.095 48.7902 65.9459 49.9498 64.5285 49.9498H34.0977C32.6803 49.9498 31.5312 48.7902 31.5312 47.3598C31.5312 45.9294 32.6803 44.7698 34.0977 44.7698H19.7989C18.3815 44.7698 17.2324 43.6102 17.2324 42.1798C17.2324 40.7494 18.3815 39.5898 19.7989 39.5898H34.4643C35.8817 39.5898 37.0308 38.4302 37.0308 36.9998C37.0308 35.5694 35.8817 34.4098 34.4643 34.4098H25.2984C23.881 34.4098 22.732 33.2502 22.732 31.8198C22.732 30.3894 23.881 29.2298 25.2984 29.2298H39.9639C38.5465 29.2298 37.3974 28.0702 37.3974 26.6398C37.3974 25.2094 38.5465 24.0498 39.9639 24.0498H75.8942ZM75.8942 34.4098C77.3116 34.4098 78.4607 35.5694 78.4607 36.9998C78.4607 38.4302 77.3116 39.5898 75.8942 39.5898C74.4768 39.5898 73.3278 38.4302 73.3278 36.9998C73.3278 35.5694 74.4768 34.4098 75.8942 34.4098Z" fill="#BFCDFF"/>
<path fill-rule="evenodd" clip-rule="evenodd" d="M56.3693 23.6803L59.7566 48.7609L60.0606 51.2771C60.1586 52.0877 59.5855 52.8263 58.7807 52.9267L37.2862 55.6085C36.4813 55.709 35.7495 55.1332 35.6515 54.3226L32.3715 27.177C32.3225 26.7716 32.609 26.4024 33.0115 26.3522C33.014 26.3519 33.0165 26.3515 33.0191 26.3513L34.8023 26.1478M36.2397 25.9636L37.9218 25.7719L36.2397 25.9636Z" fill="white"/>
<path d="M57.6077 23.5102C57.5154 22.8261 56.886 22.3476 56.202 22.4415C55.5181 22.5354 55.0385 23.1662 55.1309 23.8503L57.6077 23.5102ZM59.7566 48.7609L60.9972 48.6082C60.9965 48.6024 60.9958 48.5966 60.995 48.5908L59.7566 48.7609ZM60.0606 51.2771L61.3012 51.1244L60.0606 51.2771ZM58.7807 52.9267L58.9327 54.1674L58.7807 52.9267ZM37.2862 55.6085L37.4382 56.8493L37.2862 55.6085ZM35.6515 54.3226L36.8922 54.1699L35.6515 54.3226ZM32.3715 27.177L33.6121 27.0243L32.3715 27.177ZM33.0115 26.3522L32.8594 25.1115L33.0115 26.3522ZM33.0191 26.3513L33.158 27.5935L33.0191 26.3513ZM34.9413 27.3901C35.6272 27.3119 36.121 26.6922 36.0443 26.0061C35.9675 25.32 35.3493 24.8273 34.6634 24.9055L34.9413 27.3901ZM36.1009 24.7213C35.415 24.7994 34.9211 25.4189 34.9977 26.105C35.0744 26.7911 35.6925 27.284 36.3784 27.2059L36.1009 24.7213ZM38.0606 27.0142C38.7465 26.9361 39.2404 26.3166 39.1638 25.6305C39.0871 24.9444 38.469 24.4515 37.7831 24.5296L38.0606 27.0142ZM55.1309 23.8503L58.5182 48.9309L60.995 48.5908L57.6077 23.5102L55.1309 23.8503ZM58.5159 48.9135L58.82 51.4298L61.3012 51.1244L60.9972 48.6082L58.5159 48.9135ZM58.82 51.4298C58.8361 51.5637 58.7415 51.6719 58.6287 51.686L58.9327 54.1674C60.4296 53.9806 61.481 52.6118 61.3012 51.1244L58.82 51.4298ZM58.6287 51.686L37.1341 54.3678L37.4382 56.8493L58.9327 54.1674L58.6287 51.686ZM37.1341 54.3678C37.023 54.3817 36.9082 54.3022 36.8922 54.1699L34.4109 54.4753C34.5908 55.9642 35.9397 57.0362 37.4382 56.8493L37.1341 54.3678ZM36.8922 54.1699L33.6121 27.0243L31.1309 27.3296L34.4109 54.4753L36.8922 54.1699ZM33.6121 27.0243C33.6449 27.2957 33.4531 27.5568 33.1635 27.5929L32.8594 25.1115C31.765 25.248 31.0001 26.2476 31.1309 27.3296L33.6121 27.0243ZM33.1635 27.5929C33.1617 27.5931 33.1598 27.5933 33.158 27.5935L32.8801 25.109C32.8732 25.1098 32.8663 25.1106 32.8594 25.1115L33.1635 27.5929ZM33.158 27.5935L34.9413 27.3901L34.6634 24.9055L32.8801 25.109L33.158 27.5935ZM36.3784 27.2059L38.0606 27.0142L37.7831 24.5296L36.1009 24.7213L36.3784 27.2059Z" fill="#96A3BE"/>
<path fill-rule="evenodd" clip-rule="evenodd" d="M55.4143 25.2592L58.5012 48.0082L58.7789 50.2904C58.8683 51.0257 58.3572 51.694 57.6373 51.7832L38.4101 54.1657C37.6902 54.2549 37.0341 53.7312 36.9446 52.9959L34.1087 29.6875C33.9753 28.591 34.7558 27.592 35.852 27.4562L36.9736 27.3172" fill="#E8F0FE"/>
<path d="M40.3594 22.5C40.3594 20.9812 41.5906 19.75 43.1094 19.75H56.219C56.9524 19.75 57.6555 20.043 58.1718 20.5638L61.6268 24.0483C62.1375 24.5633 62.424 25.2592 62.424 25.9845V45.58C62.424 47.0988 61.1928 48.33 59.674 48.33H43.1094C41.5906 48.33 40.3594 47.0988 40.3594 45.58V22.5Z" fill="white" stroke="#96A3BE" stroke-width="2.5"/>
<path d="M57.4414 19.3887V23.6796C57.4414 24.2927 57.9339 24.7896 58.5413 24.7896H61.4501" stroke="#96A3BE" stroke-width="1.5" stroke-linecap="round" stroke-linejoin="round"/>
<path d="M43.2637 43.66H52.7962M43.2637 24.79H52.7962H43.2637ZM43.2637 29.23H59.029H43.2637ZM43.2637 34.04H59.029H43.2637ZM43.2637 38.85H59.029H43.2637Z" stroke="#95ADFF" stroke-width="2.5" stroke-linecap="round" stroke-linejoin="round"/>
</svg>
