<svg width="200" height="160" viewBox="0 0 200 160" fill="none" xmlns="http://www.w3.org/2000/svg">
<rect width="200" height="160" fill="#F2F6FF"/>
<path fill-rule="evenodd" clip-rule="evenodd" d="M165.6 52C168.692 52 171.2 54.5072 171.2 57.6C171.2 60.6928 168.692 63.2 165.6 63.2H133.6C136.692 63.2 139.2 65.7072 139.2 68.8C139.2 71.8928 136.692 74.4 133.6 74.4H151.2C154.292 74.4 156.8 76.9072 156.8 80C156.8 83.0928 154.292 85.6 151.2 85.6H143.06C139.161 85.6 136 88.1072 136 91.2C136 93.2619 137.6 95.1285 140.8 96.8C143.892 96.8 146.4 99.3072 146.4 102.4C146.4 105.493 143.892 108 140.8 108H74.3996C71.3068 108 68.7996 105.493 68.7996 102.4C68.7996 99.3072 71.3068 96.8 74.3996 96.8H43.1996C40.1068 96.8 37.5996 94.2928 37.5996 91.2C37.5996 88.1072 40.1068 85.6 43.1996 85.6H75.1996C78.2924 85.6 80.7996 83.0928 80.7996 80C80.7996 76.9072 78.2924 74.4 75.1996 74.4H55.1996C52.1068 74.4 49.5996 71.8928 49.5996 68.8C49.5996 65.7072 52.1068 63.2 55.1996 63.2H87.1996C84.1068 63.2 81.5996 60.6928 81.5996 57.6C81.5996 54.5072 84.1068 52 87.1996 52H165.6ZM165.6 74.4C168.692 74.4 171.2 76.9072 171.2 80C171.2 83.0928 168.692 85.6 165.6 85.6C162.507 85.6 160 83.0928 160 80C160 76.9072 162.507 74.4 165.6 74.4Z" fill="#D8E3F8"/>
<path fill-rule="evenodd" clip-rule="evenodd" d="M79.954 106.554L81.146 106.513V123.312C81.146 123.692 81.4555 124 81.8372 124H123.309C123.691 124 124 123.692 124 123.312V65.7242C124 64.3302 122.866 63.2002 121.466 63.2002H83.6804C82.2807 63.2002 81.146 64.3302 81.146 65.7242V77.6983L79.954 77.6571C79.814 77.6522 79.6737 77.6498 79.5332 77.6498C72.3051 77.6498 66.4004 84.0995 66.4004 92.1056C66.4004 100.112 72.3051 106.561 79.5332 106.561C79.6737 106.561 79.814 106.559 79.954 106.554ZM80.0861 101.032C79.9026 101.047 79.7182 101.054 79.5332 101.054C75.1704 101.054 71.715 97.0106 71.715 92.1056C71.715 87.2007 75.1704 83.1568 79.5332 83.1568C79.7182 83.1568 79.9026 83.1641 80.0861 83.1788L81.146 83.2635V100.948L80.0861 101.032Z" fill="white" stroke="#96A3BE" stroke-width="2.5" stroke-linejoin="round"/>
<path d="M117.6 68.1455V82.8002M117.6 87.3455V91.14V87.3455Z" stroke="#95ADFF" stroke-width="2.5" stroke-linecap="round" stroke-linejoin="round"/>
<path d="M53.7031 117.6H59.2008M144.903 117.6H147.201M128.801 117.6H141.143M64.0008 117.6H77.9641" stroke="#96A3BE" stroke-width="2.5" stroke-linecap="round" stroke-linejoin="round"/>
<path d="M102.399 28C100.266 31.3708 99.1992 34.3042 99.1992 36.8C99.1992 41.2449 102.922 43.2355 102.922 48.0504C102.922 50.4941 101.681 52.9206 99.1992 55.3297" stroke="#95ADFF" stroke-width="2.5" stroke-linecap="round"/>
<path d="M92.7997 36.7998C92.1017 41.21 95.1997 42.0256 95.1997 45.9795C95.1997 47.9862 94.3997 49.993 92.7997 51.9998" stroke="#95ADFF" stroke-width="2.5" stroke-linecap="round"/>
<path d="M107.836 34.7793C106.78 37.5146 107.373 39.1819 107.836 40.1633C108.826 42.2609 110.4 44.0717 110.4 46.2063C110.4 48.6854 109.546 51.0714 107.836 53.3641" stroke="#95ADFF" stroke-width="2.5" stroke-linecap="round"/>
<path d="M84 67.3999C84 66.8476 84.4477 66.3999 85 66.3999L100 66.3999V121.6H85C84.4477 121.6 84 121.152 84 120.6V67.3999Z" fill="#E8F0FE"/>
</svg>
