<svg width="20" height="21" viewBox="0 0 20 21" fill="none" xmlns="http://www.w3.org/2000/svg">
<mask id="mask0_977_4215" style="mask-type:alpha" maskUnits="userSpaceOnUse" x="0" y="0" width="20" height="21">
<rect y="0.5" width="20" height="20" fill="#D9D9D9"/>
</mask>
<g mask="url(#mask0_977_4215)">
<path d="M9.99985 7.27083V13.7708L12.6249 15.375L11.9373 12.375L14.2499 10.375L11.2082 10.1042L9.99985 7.27083ZM9.99985 15.7292L6.54152 17.8125C6.38874 17.9097 6.22902 17.9514 6.06235 17.9375C5.89568 17.9236 5.74985 17.8681 5.62485 17.7708C5.49985 17.6736 5.40263 17.5521 5.33318 17.4062C5.26374 17.2604 5.24985 17.0972 5.29152 16.9167L6.20818 12.9792L3.14568 10.3333C3.00679 10.2083 2.91999 10.066 2.88527 9.90625C2.85054 9.74653 2.86096 9.59028 2.91652 9.4375C2.97207 9.28472 3.05541 9.15972 3.16652 9.0625C3.27763 8.96528 3.43041 8.90278 3.62485 8.875L7.66652 8.52083L9.22902 4.8125C9.29846 4.64583 9.4061 4.52083 9.55193 4.4375C9.69777 4.35417 9.84707 4.3125 9.99985 4.3125C10.1526 4.3125 10.3019 4.35417 10.4478 4.4375C10.5936 4.52083 10.7012 4.64583 10.7707 4.8125L12.3332 8.52083L16.3748 8.875C16.5693 8.90278 16.7221 8.96528 16.8332 9.0625C16.9443 9.15972 17.0276 9.28472 17.0832 9.4375C17.1387 9.59028 17.1492 9.74653 17.1144 9.90625C17.0797 10.066 16.9929 10.2083 16.854 10.3333L13.7915 12.9792L14.7082 16.9167C14.7499 17.0972 14.736 17.2604 14.6665 17.4062C14.5971 17.5521 14.4998 17.6736 14.3748 17.7708C14.2498 17.8681 14.104 17.9236 13.9374 17.9375C13.7707 17.9514 13.611 17.9097 13.4582 17.8125L9.99985 15.7292Z" fill="#EAB308"/>
</g>
</svg>
