<svg width="20" height="21" viewBox="0 0 20 21" fill="none" xmlns="http://www.w3.org/2000/svg">
<mask id="mask0_948_1810" style="mask-type:alpha" maskUnits="userSpaceOnUse" x="0" y="0" width="20" height="21">
<rect y="0.5" width="20" height="20" fill="#D9D9D9"/>
</mask>
<g mask="url(#mask0_948_1810)">
<path d="M2.49935 17.1663C2.26324 17.1663 2.06532 17.0865 1.9056 16.9268C1.74588 16.767 1.66602 16.5691 1.66602 16.333V9.18717C1.66602 9.07606 1.68685 8.96842 1.72852 8.86426C1.77018 8.76009 1.83268 8.66634 1.91602 8.58301L6.08268 4.41634C6.16602 4.33301 6.25629 4.27398 6.35352 4.23926C6.45074 4.20454 6.5549 4.18717 6.66602 4.18717C6.77713 4.18717 6.88129 4.20454 6.97852 4.23926C7.07574 4.27398 7.16602 4.33301 7.24935 4.41634L11.416 8.58301C11.4993 8.66634 11.5618 8.76009 11.6035 8.86426C11.6452 8.96842 11.666 9.07606 11.666 9.18717V16.333C11.666 16.5691 11.5862 16.767 11.4264 16.9268C11.2667 17.0865 11.0688 17.1663 10.8327 17.1663H2.49935ZM3.33268 15.4997H5.83268V13.833C5.83268 13.5969 5.91254 13.399 6.07227 13.2393C6.23199 13.0795 6.4299 12.9997 6.66602 12.9997C6.90213 12.9997 7.10004 13.0795 7.25977 13.2393C7.41949 13.399 7.49935 13.5969 7.49935 13.833V15.4997H9.99935V9.52051L6.66602 6.18717L3.33268 9.52051V15.4997ZM6.66602 11.333C6.4299 11.333 6.23199 11.2531 6.07227 11.0934C5.91254 10.9337 5.83268 10.7358 5.83268 10.4997C5.83268 10.2636 5.91254 10.0656 6.07227 9.90592C6.23199 9.7462 6.4299 9.66634 6.66602 9.66634C6.90213 9.66634 7.10004 9.7462 7.25977 9.90592C7.41949 10.0656 7.49935 10.2636 7.49935 10.4997C7.49935 10.7358 7.41949 10.9337 7.25977 11.0934C7.10004 11.2531 6.90213 11.333 6.66602 11.333ZM14.166 17.1663C13.9299 17.1663 13.732 17.0865 13.5723 16.9268C13.4125 16.767 13.3327 16.5691 13.3327 16.333V8.31217C13.3327 8.2844 13.291 8.18717 13.2077 8.02051L10.4368 5.24967C10.173 4.98579 10.1105 4.6837 10.2493 4.34342C10.3882 4.00315 10.6452 3.83301 11.0202 3.83301C11.1313 3.83301 11.2424 3.85731 11.3535 3.90592C11.4646 3.95454 11.5549 4.01356 11.6243 4.08301L14.7493 7.20801C14.8327 7.29134 14.8952 7.38509 14.9368 7.48926C14.9785 7.59342 14.9993 7.70106 14.9993 7.81217V16.333C14.9993 16.5691 14.9195 16.767 14.7598 16.9268C14.6 17.0865 14.4021 17.1663 14.166 17.1663ZM17.4993 17.1663C17.2632 17.1663 17.0653 17.0865 16.9056 16.9268C16.7459 16.767 16.666 16.5691 16.666 16.333V6.93717C16.666 6.9094 16.6243 6.81217 16.541 6.64551L15.1452 5.24967C14.8813 4.98579 14.8188 4.6837 14.9577 4.34342C15.0966 4.00315 15.3535 3.83301 15.7285 3.83301C15.8396 3.83301 15.9507 3.85731 16.0618 3.90592C16.173 3.95454 16.2632 4.01356 16.3327 4.08301L18.0827 5.83301C18.166 5.91634 18.2285 6.01009 18.2702 6.11426C18.3118 6.21842 18.3327 6.32606 18.3327 6.43717V16.333C18.3327 16.5691 18.2528 16.767 18.0931 16.9268C17.9334 17.0865 17.7355 17.1663 17.4993 17.1663Z" fill="#96A3BE"/>
</g>
</svg>
