<svg width="25" height="25" viewBox="0 0 25 25" fill="none" xmlns="http://www.w3.org/2000/svg">
<mask id="mask0_937_2086" style="mask-type:alpha" maskUnits="userSpaceOnUse" x="0" y="0" width="25" height="25">
<rect x="0.924805" y="0.693848" width="24" height="24" fill="#D9D9D9"/>
</mask>
<g mask="url(#mask0_937_2086)">
<path d="M12.9248 17.6938C13.2081 17.6938 13.4456 17.598 13.6373 17.4063C13.829 17.2147 13.9248 16.9772 13.9248 16.6938V12.6938C13.9248 12.4105 13.829 12.173 13.6373 11.9813C13.4456 11.7897 13.2081 11.6938 12.9248 11.6938C12.6415 11.6938 12.404 11.7897 12.2123 11.9813C12.0206 12.173 11.9248 12.4105 11.9248 12.6938V16.6938C11.9248 16.9772 12.0206 17.2147 12.2123 17.4063C12.404 17.598 12.6415 17.6938 12.9248 17.6938ZM12.9248 9.69385C13.2081 9.69385 13.4456 9.59801 13.6373 9.40635C13.829 9.21468 13.9248 8.97718 13.9248 8.69385C13.9248 8.41051 13.829 8.17301 13.6373 7.98135C13.4456 7.78968 13.2081 7.69385 12.9248 7.69385C12.6415 7.69385 12.404 7.78968 12.2123 7.98135C12.0206 8.17301 11.9248 8.41051 11.9248 8.69385C11.9248 8.97718 12.0206 9.21468 12.2123 9.40635C12.404 9.59801 12.6415 9.69385 12.9248 9.69385ZM12.9248 22.6938C11.5415 22.6938 10.2415 22.4313 9.0248 21.9063C7.80814 21.3813 6.7498 20.6688 5.8498 19.7688C4.9498 18.8688 4.2373 17.8105 3.7123 16.5938C3.1873 15.3772 2.9248 14.0772 2.9248 12.6938C2.9248 11.3105 3.1873 10.0105 3.7123 8.79385C4.2373 7.57718 4.9498 6.51885 5.8498 5.61885C6.7498 4.71885 7.80814 4.00635 9.0248 3.48135C10.2415 2.95635 11.5415 2.69385 12.9248 2.69385C14.3081 2.69385 15.6081 2.95635 16.8248 3.48135C18.0415 4.00635 19.0998 4.71885 19.9998 5.61885C20.8998 6.51885 21.6123 7.57718 22.1373 8.79385C22.6623 10.0105 22.9248 11.3105 22.9248 12.6938C22.9248 14.0772 22.6623 15.3772 22.1373 16.5938C21.6123 17.8105 20.8998 18.8688 19.9998 19.7688C19.0998 20.6688 18.0415 21.3813 16.8248 21.9063C15.6081 22.4313 14.3081 22.6938 12.9248 22.6938ZM12.9248 20.6938C15.1581 20.6938 17.0498 19.9188 18.5998 18.3688C20.1498 16.8188 20.9248 14.9272 20.9248 12.6938C20.9248 10.4605 20.1498 8.56885 18.5998 7.01885C17.0498 5.46885 15.1581 4.69385 12.9248 4.69385C10.6915 4.69385 8.79981 5.46885 7.2498 7.01885C5.6998 8.56885 4.9248 10.4605 4.9248 12.6938C4.9248 14.9272 5.6998 16.8188 7.2498 18.3688C8.79981 19.9188 10.6915 20.6938 12.9248 20.6938Z" fill="#0066F5"/>
</g>
</svg>
