<svg width="20" height="21" viewBox="0 0 20 21" fill="none" xmlns="http://www.w3.org/2000/svg">
<mask id="mask0_948_1805" style="mask-type:alpha" maskUnits="userSpaceOnUse" x="0" y="0" width="20" height="21">
<rect y="0.5" width="20" height="20" fill="#D9D9D9"/>
</mask>
<g mask="url(#mask0_948_1805)">
<path d="M10 18.8337C8.52778 18.8337 7.32639 18.601 6.39583 18.1357C5.46528 17.6705 5 17.0698 5 16.3337C5 15.8475 5.20139 15.4239 5.60417 15.0628C6.00694 14.7017 6.5625 14.417 7.27083 14.2087L7.75 15.792C7.51389 15.8614 7.29861 15.9482 7.10417 16.0524C6.90972 16.1566 6.77778 16.2503 6.70833 16.3337C6.88889 16.5559 7.30556 16.7503 7.95833 16.917C8.61111 17.0837 9.29167 17.167 10 17.167C10.7083 17.167 11.3924 17.0837 12.0521 16.917C12.7118 16.7503 13.1319 16.5559 13.3125 16.3337C13.2431 16.2503 13.1111 16.1566 12.9167 16.0524C12.7222 15.9482 12.5069 15.8614 12.2708 15.792L12.75 14.2087C13.4583 14.417 14.0104 14.7017 14.4062 15.0628C14.8021 15.4239 15 15.8475 15 16.3337C15 17.0698 14.5347 17.6705 13.6042 18.1357C12.6736 18.601 11.4722 18.8337 10 18.8337ZM10 13.2712C10.25 12.8128 10.5139 12.3927 10.7917 12.0107C11.0694 11.6288 11.3403 11.2642 11.6042 10.917C12.1181 10.2503 12.5278 9.64963 12.8333 9.11491C13.1389 8.58019 13.2917 7.91699 13.2917 7.12533C13.2917 6.20866 12.9722 5.43088 12.3333 4.79199C11.6944 4.1531 10.9167 3.83366 10 3.83366C9.08333 3.83366 8.30556 4.1531 7.66667 4.79199C7.02778 5.43088 6.70833 6.20866 6.70833 7.12533C6.70833 7.91699 6.86111 8.58019 7.16667 9.11491C7.47222 9.64963 7.88194 10.2503 8.39583 10.917C8.65972 11.2642 8.93056 11.6288 9.20833 12.0107C9.48611 12.3927 9.75 12.8128 10 13.2712ZM10 16.3337C9.84722 16.3337 9.70833 16.2885 9.58333 16.1982C9.45833 16.108 9.36806 15.9864 9.3125 15.8337C8.99306 14.8475 8.59028 14.0212 8.10417 13.3545C7.61806 12.6878 7.14583 12.0489 6.6875 11.4378C6.24306 10.8267 5.85764 10.1948 5.53125 9.54199C5.20486 8.88921 5.04167 8.08366 5.04167 7.12533C5.04167 5.73644 5.52083 4.56283 6.47917 3.60449C7.4375 2.64616 8.61111 2.16699 10 2.16699C11.3889 2.16699 12.5625 2.64616 13.5208 3.60449C14.4792 4.56283 14.9583 5.73644 14.9583 7.12533C14.9583 8.08366 14.7986 8.88921 14.4792 9.54199C14.1597 10.1948 13.7708 10.8267 13.3125 11.4378C12.8681 12.0489 12.3993 12.6878 11.9062 13.3545C11.4132 14.0212 11.0069 14.8475 10.6875 15.8337C10.6319 15.9864 10.5417 16.108 10.4167 16.1982C10.2917 16.2885 10.1528 16.3337 10 16.3337ZM10 8.89616C10.4861 8.89616 10.9028 8.72255 11.25 8.37533C11.5972 8.0281 11.7708 7.61144 11.7708 7.12533C11.7708 6.63921 11.5972 6.22255 11.25 5.87533C10.9028 5.5281 10.4861 5.35449 10 5.35449C9.51389 5.35449 9.09722 5.5281 8.75 5.87533C8.40278 6.22255 8.22917 6.63921 8.22917 7.12533C8.22917 7.61144 8.40278 8.0281 8.75 8.37533C9.09722 8.72255 9.51389 8.89616 10 8.89616Z" fill="#96A3BE"/>
</g>
</svg>
