<svg width="20" height="20" viewBox="0 0 20 20" fill="none" xmlns="http://www.w3.org/2000/svg">
<mask id="mask0_948_1831" style="mask-type:alpha" maskUnits="userSpaceOnUse" x="0" y="0" width="20" height="20">
<rect width="20" height="20" fill="#D9D9D9"/>
</mask>
<g mask="url(#mask0_948_1831)">
<path d="M9.99935 17.5C9.76324 17.5 9.56532 17.4201 9.4056 17.2604C9.24588 17.1007 9.16602 16.9028 9.16602 16.6667C9.16602 16.4306 9.24588 16.2326 9.4056 16.0729C9.56532 15.9132 9.76324 15.8333 9.99935 15.8333H15.8327V9.91667C15.8327 9.11111 15.6799 8.35417 15.3743 7.64583C15.0688 6.9375 14.6521 6.31944 14.1243 5.79167C13.5966 5.26389 12.9785 4.84722 12.2702 4.54167C11.5618 4.23611 10.8049 4.08333 9.99935 4.08333C9.19379 4.08333 8.43685 4.23611 7.72852 4.54167C7.02018 4.84722 6.40213 5.26389 5.87435 5.79167C5.34657 6.31944 4.9299 6.9375 4.62435 7.64583C4.31879 8.35417 4.16602 9.11111 4.16602 9.91667V14.1667C4.16602 14.4028 4.08615 14.6007 3.92643 14.7604C3.76671 14.9201 3.56879 15 3.33268 15C2.87435 15 2.48199 14.8368 2.1556 14.5104C1.82921 14.184 1.66602 13.7917 1.66602 13.3333V11.6667C1.66602 11.3472 1.7424 11.066 1.89518 10.8229C2.04796 10.5799 2.24935 10.3819 2.49935 10.2292L2.56185 9.125C2.68685 8.11111 2.97504 7.19444 3.42643 6.375C3.87782 5.55556 4.44032 4.86111 5.11393 4.29167C5.78754 3.72222 6.54449 3.28125 7.38477 2.96875C8.22504 2.65625 9.09657 2.5 9.99935 2.5C10.916 2.5 11.7945 2.65625 12.6348 2.96875C13.475 3.28125 14.2285 3.72569 14.8952 4.30208C15.5618 4.87847 16.1209 5.57292 16.5723 6.38542C17.0237 7.19792 17.3118 8.10417 17.4368 9.10417L17.4993 10.1875C17.7493 10.3125 17.9507 10.4965 18.1035 10.7396C18.2563 10.9826 18.3327 11.25 18.3327 11.5417V13.4583C18.3327 13.7639 18.2563 14.0347 18.1035 14.2708C17.9507 14.5069 17.7493 14.6875 17.4993 14.8125V15.8333C17.4993 16.2917 17.3362 16.684 17.0098 17.0104C16.6834 17.3368 16.291 17.5 15.8327 17.5H9.99935ZM7.49935 11.6667C7.26324 11.6667 7.06532 11.5868 6.9056 11.4271C6.74588 11.2674 6.66602 11.0694 6.66602 10.8333C6.66602 10.5972 6.74588 10.3993 6.9056 10.2396C7.06532 10.0799 7.26324 10 7.49935 10C7.73546 10 7.93338 10.0799 8.0931 10.2396C8.25282 10.3993 8.33268 10.5972 8.33268 10.8333C8.33268 11.0694 8.25282 11.2674 8.0931 11.4271C7.93338 11.5868 7.73546 11.6667 7.49935 11.6667ZM12.4993 11.6667C12.2632 11.6667 12.0653 11.5868 11.9056 11.4271C11.7459 11.2674 11.666 11.0694 11.666 10.8333C11.666 10.5972 11.7459 10.3993 11.9056 10.2396C12.0653 10.0799 12.2632 10 12.4993 10C12.7355 10 12.9334 10.0799 13.0931 10.2396C13.2528 10.3993 13.3327 10.5972 13.3327 10.8333C13.3327 11.0694 13.2528 11.2674 13.0931 11.4271C12.9334 11.5868 12.7355 11.6667 12.4993 11.6667ZM5.02018 10.375C4.96463 9.55556 5.07921 8.8125 5.36393 8.14583C5.64865 7.47917 6.0306 6.91319 6.50977 6.44792C6.98893 5.98264 7.54102 5.625 8.16602 5.375C8.79102 5.125 9.41602 5 10.041 5C11.3049 5 12.3987 5.39931 13.3223 6.19792C14.2459 6.99653 14.8049 7.99306 14.9993 9.1875C13.6938 9.17361 12.5132 8.82292 11.4577 8.13542C10.4021 7.44792 9.60352 6.55556 9.06185 5.45833C8.83963 6.58333 8.37088 7.57986 7.6556 8.44792C6.94032 9.31597 6.06185 9.95833 5.02018 10.375Z" fill="#0066F5"/>
</g>
</svg>
