<svg width="428" height="401" viewBox="0 0 428 401" fill="none" xmlns="http://www.w3.org/2000/svg">
<g clip-path="url(#clip0_936_1105)">
<path fill-rule="evenodd" clip-rule="evenodd" d="M676.88 401H-338L-220.232 208.734L-0.839874 273.249L23.8482 322.677L284.919 271.125L407.196 167.893L558.128 221.528L589.603 168.203L621.726 138.337L637.707 137.361L692.343 276.197L676.88 401Z" fill="#9AE0E2"/>
<mask id="mask0_936_1105" style="mask-type:luminance" maskUnits="userSpaceOnUse" x="-338" y="0" width="1066" height="400">
<path fill-rule="evenodd" clip-rule="evenodd" d="M-338 0H727.502V399.352H-338V0Z" fill="white"/>
</mask>
<g mask="url(#mask0_936_1105)">
<path fill-rule="evenodd" clip-rule="evenodd" d="M727.502 399.352H-338L-299.533 237.535L-279.005 241.743L-236.402 264.145L129.646 350.077L153.375 333.607L186.84 345.103L329.788 307.862L416.719 358.657L485.768 254.787L498.379 197.818L521.324 158.463L530.485 65.5902L545.547 68.7382L548.753 0L566.247 12.5942L595.338 147.445L610.107 139.575L618.666 226.152L641.127 256.06L682.655 259.208L727.502 399.352Z" fill="#CFAC8C"/>
</g>
<path fill-rule="evenodd" clip-rule="evenodd" d="M758.838 400.999H-338L-319.528 278.222L-261.156 368.657L-232.587 314.057L-227.324 311.957L-170.915 102.387L-159.319 189.999L-148.032 197.839L-136.934 359.126L-123.98 364.028L-114.458 386.577L147.765 366.811L202.3 308.307L221.121 312.392L236.085 257.788L308.012 305.108L386.711 379.967L432.79 330.494L488.779 324.756L503.612 263.14L517.687 275.233L528.635 224.442L555.219 196.629L575.551 223.232L628.722 232.908L758.838 400.999Z" fill="#6C6A75"/>
<path fill-rule="evenodd" clip-rule="evenodd" d="M307.833 312.259L383.177 397.302L272.876 401L269.056 351.457L239.632 266.765L307.833 312.259ZM220.293 311.864L205.883 332.266L216.545 350.656L182.954 363.329L-137.827 348.433L-150.226 204.283L-162.063 194.783L-169.325 145.56L-222.055 400.999H262.056L241.121 340.988L220.293 311.864Z" fill="#474553"/>
<mask id="mask1_936_1105" style="mask-type:luminance" maskUnits="userSpaceOnUse" x="-338" y="258" width="382" height="142">
<path fill-rule="evenodd" clip-rule="evenodd" d="M-338 258.144H43.4088V399.338H-338V258.144Z" fill="white"/>
</mask>
<g mask="url(#mask1_936_1105)">
<path fill-rule="evenodd" clip-rule="evenodd" d="M-338 399.338H43.4091C19.6529 399.338 -4.10605 385.201 -22.2316 356.929L-58.3741 300.552C-76.5009 272.281 -100.259 258.144 -124.016 258.144H-170.575C-194.332 258.144 -218.09 272.281 -236.215 300.552L-272.359 356.929C-290.485 385.201 -314.242 399.338 -338 399.338Z" fill="#019444"/>
</g>
<path fill-rule="evenodd" clip-rule="evenodd" d="M-284.665 401H77.0829C65.4784 401 53.8739 394.154 45.0193 380.467L27.3657 353.175C18.511 339.486 6.90656 332.643 -4.69794 332.643H-202.886C-214.489 332.643 -226.095 339.486 -234.948 353.175L-252.601 380.467C-261.456 394.154 -273.061 401 -284.665 401Z" fill="#45BC54"/>
<path fill-rule="evenodd" clip-rule="evenodd" d="M54.0533 401H77.0828C65.4308 401 53.7788 394.156 44.8893 380.467L27.1621 353.175C18.2725 339.486 6.62056 332.643 -5.0328 332.643H-26.4742C-26.7391 332.643 -27.0027 332.647 -27.2676 332.655C-15.8819 332.96 -4.55623 339.799 4.13121 353.175L21.8584 380.467C30.7493 394.156 42.4013 401 54.0533 401Z" fill="#3CA247"/>
<path fill-rule="evenodd" clip-rule="evenodd" d="M385.496 401H390.134V393.805H385.496V401Z" fill="#8E6340"/>
<mask id="mask2_936_1105" style="mask-type:alpha" maskUnits="userSpaceOnUse" x="35" y="-55" width="215" height="215">
<circle cx="142.5" cy="52.5" r="107.5" fill="#FADE96"/>
</mask>
<g mask="url(#mask2_936_1105)">
<circle cx="142.5" cy="52.5" r="107.5" fill="#FADE96"/>
<circle cx="151.5" cy="47.5" r="107.5" fill="#FFE9B2"/>
</g>
<path fill-rule="evenodd" clip-rule="evenodd" d="M404.047 383.993C404.047 355.413 398.028 328.976 387.815 307.459C377.601 328.976 371.582 355.413 371.582 383.993C371.582 387.507 371.673 390.984 371.851 394.427C376.962 396.372 382.308 397.403 387.815 397.403C393.319 397.403 398.667 396.372 403.778 394.427C403.957 390.984 404.047 387.507 404.047 383.993Z" fill="#067265"/>
<path fill-rule="evenodd" clip-rule="evenodd" d="M404.047 383.991C404.047 355.412 398.028 328.975 387.814 307.459V397.403C393.319 397.403 398.667 396.369 403.778 394.425C403.957 390.982 404.047 387.503 404.047 383.991Z" fill="#05594F"/>
<path fill-rule="evenodd" clip-rule="evenodd" d="M121.142 401H128.098V390.207H121.142V401Z" fill="#8E6340"/>
<path fill-rule="evenodd" clip-rule="evenodd" d="M151.287 370.738C151.287 321.581 140.968 276.107 123.46 239.102C105.952 276.107 95.6338 321.581 95.6338 370.738C95.6338 376.778 95.7888 382.766 96.0946 388.684C104.855 392.028 114.022 393.805 123.46 393.805C132.898 393.805 142.065 392.028 150.826 388.684C151.132 382.766 151.287 376.778 151.287 370.738Z" fill="#387C3F"/>
<path fill-rule="evenodd" clip-rule="evenodd" d="M151.287 370.738C151.287 321.582 140.967 276.109 123.46 239.102V393.805C132.898 393.805 142.065 392.028 150.825 388.684C151.132 382.766 151.287 376.778 151.287 370.738Z" fill="#006738"/>
<path fill-rule="evenodd" clip-rule="evenodd" d="M26.0664 397.402H28.3853V379.413H26.0664V397.402Z" fill="#8E6340"/>
<path fill-rule="evenodd" clip-rule="evenodd" d="M26.0667 383.011C33.7303 383.011 39.9801 373.314 39.9801 361.424C39.9801 349.536 33.7303 339.838 26.0667 339.838C18.4044 339.838 12.1533 349.536 12.1533 361.424C12.1533 373.314 18.4044 383.011 26.0667 383.011Z" fill="#B5D153"/>
<path fill-rule="evenodd" clip-rule="evenodd" d="M26.0664 339.838C33.7504 339.838 39.9798 349.502 39.9798 361.423C39.9798 373.344 33.7504 383.011 26.0664 383.011V339.838Z" fill="#9CBA39"/>
</g>
<defs>
<clipPath id="clip0_936_1105">
<rect width="1104" height="401" fill="white" transform="translate(-338)"/>
</clipPath>
</defs>
</svg>
