<svg width="200" height="160" viewBox="0 0 200 160" fill="none" xmlns="http://www.w3.org/2000/svg">
<rect width="200" height="160" fill="#F2F6FF"/>
<path fill-rule="evenodd" clip-rule="evenodd" d="M50.3996 107.2H123.2C123.612 107.2 124.013 107.155 124.4 107.071C124.786 107.155 125.188 107.2 125.6 107.2H167.2C170.292 107.2 172.8 104.693 172.8 101.6C172.8 98.5072 170.292 95.9999 167.2 95.9999H162.4C159.307 95.9999 156.8 93.4927 156.8 90.3999C156.8 87.3072 159.307 84.7999 162.4 84.7999H177.6C180.692 84.7999 183.2 82.2927 183.2 79.1999C183.2 76.1072 180.692 73.5999 177.6 73.5999H160C163.092 73.5999 165.6 71.0927 165.6 68C165.6 64.9072 163.092 62.4 160 62.4H108.8C111.892 62.4 114.4 59.8927 114.4 56.8C114.4 53.7072 111.892 51.2 108.8 51.2H63.1996C60.1068 51.2 57.5996 53.7072 57.5996 56.8C57.5996 59.8927 60.1068 62.4 63.1996 62.4H31.1996C28.1068 62.4 25.5996 64.9072 25.5996 68C25.5996 71.0927 28.1068 73.5999 31.1996 73.5999H51.1996C54.2924 73.5999 56.7996 76.1072 56.7996 79.1999C56.7996 82.2927 54.2924 84.7999 51.1996 84.7999H19.1996C16.1068 84.7999 13.5996 87.3072 13.5996 90.3999C13.5996 93.4927 16.1068 95.9999 19.1996 95.9999H50.3996C47.3068 95.9999 44.7996 98.5072 44.7996 101.6C44.7996 104.693 47.3068 107.2 50.3996 107.2ZM180.8 107.2C183.892 107.2 186.4 104.693 186.4 101.6C186.4 98.5072 183.892 96 180.8 96C177.707 96 175.2 98.5072 175.2 101.6C175.2 104.693 177.707 107.2 180.8 107.2Z" fill="#D8E3F8"/>
<path fill-rule="evenodd" clip-rule="evenodd" d="M55.9624 56.4142L122.382 45.7808C123.691 45.5712 124.922 46.4624 125.131 47.7712C125.132 47.7738 125.132 47.7764 125.133 47.7791L131.63 89.2447C131.835 90.5512 130.944 91.7771 129.638 91.9861L63.2186 102.619C61.9097 102.829 60.6789 101.938 60.4693 100.629C60.4689 100.626 60.4685 100.624 60.4681 100.621L53.9707 59.1555C53.766 57.8491 54.6566 56.6232 55.9624 56.4142Z" fill="white"/>
<path d="M66.6763 101.939L64.1296 102.359C62.3802 102.647 60.7375 101.405 60.4604 99.5844L54.4403 60.0313C54.1633 58.2109 55.3568 56.5014 57.1061 56.2131L121.247 45.6415C122.996 45.3533 124.639 46.5953 124.916 48.4156C125.186 50.1893 125.401 51.6028 125.562 52.6562M126.019 55.6606C126.164 56.6148 126.291 57.4503 126.4 58.1673" stroke="#96A3BE" stroke-width="2.5" stroke-linecap="round"/>
<path fill-rule="evenodd" clip-rule="evenodd" d="M59.1824 58.2336L119.79 48.7687C121.096 48.5648 122.321 49.4546 122.53 50.7593L128.418 87.4145C128.629 88.7233 127.738 89.9546 126.429 90.1648C126.426 90.1654 126.423 90.1659 126.419 90.1665L65.8111 99.6313C64.5056 99.8352 63.2808 98.9454 63.0712 97.6407L57.1831 60.9855C56.9729 59.6768 57.8633 58.4454 59.1721 58.2352C59.1755 58.2346 59.1789 58.2341 59.1824 58.2336Z" fill="#E8F0FE"/>
<path d="M136.6 61.8H73.7996C72.0323 61.8 70.5996 63.2327 70.5996 65V103.8C70.5996 105.567 72.0323 107 73.7996 107H136.6C138.367 107 139.8 105.567 139.8 103.8V65C139.8 63.2327 138.367 61.8 136.6 61.8Z" fill="white" stroke="#96A3BE" stroke-width="2.5"/>
<path d="M138.8 71.2H71.5996V82.4H138.8V71.2Z" fill="#E8F0FE"/>
<path d="M82.6308 71.2H76.8737M139.336 71.2H86.6643H139.336ZM134.536 81.6H71.4648H134.536ZM100.05 96.8H77.4033H100.05Z" stroke="#96A3BE" stroke-width="2.5" stroke-linecap="round" stroke-linejoin="round"/>
</svg>
