<svg width="382" height="88" viewBox="0 0 382 88" fill="none" xmlns="http://www.w3.org/2000/svg">
<rect width="382" height="88" rx="16" fill="#FF7171" fill-opacity="0.16"/>
<mask id="mask0_1069_5920" style="mask-type:alpha" maskUnits="userSpaceOnUse" x="167" y="20" width="48" height="48">
<rect x="167" y="20" width="48" height="48" fill="#D9D9D9"/>
</mask>
<g mask="url(#mask0_1069_5920)">
<path d="M172.448 62C172.081 62 171.748 61.9083 171.448 61.725C171.148 61.5417 170.914 61.3 170.748 61C170.581 60.7 170.489 60.375 170.473 60.025C170.456 59.675 170.548 59.3333 170.748 59L189.248 27C189.448 26.6667 189.706 26.4167 190.023 26.25C190.339 26.0833 190.664 26 190.998 26C191.331 26 191.656 26.0833 191.973 26.25C192.289 26.4167 192.548 26.6667 192.748 27L211.248 59C211.448 59.3333 211.539 59.675 211.523 60.025C211.506 60.375 211.414 60.7 211.248 61C211.081 61.3 210.848 61.5417 210.548 61.725C210.248 61.9083 209.914 62 209.548 62H172.448ZM175.898 58H206.098L190.998 32L175.898 58ZM190.998 56C191.564 56 192.039 55.8083 192.423 55.425C192.806 55.0417 192.998 54.5667 192.998 54C192.998 53.4333 192.806 52.9583 192.423 52.575C192.039 52.1917 191.564 52 190.998 52C190.431 52 189.956 52.1917 189.573 52.575C189.189 52.9583 188.998 53.4333 188.998 54C188.998 54.5667 189.189 55.0417 189.573 55.425C189.956 55.8083 190.431 56 190.998 56ZM190.998 50C191.564 50 192.039 49.8083 192.423 49.425C192.806 49.0417 192.998 48.5667 192.998 48V42C192.998 41.4333 192.806 40.9583 192.423 40.575C192.039 40.1917 191.564 40 190.998 40C190.431 40 189.956 40.1917 189.573 40.575C189.189 40.9583 188.998 41.4333 188.998 42V48C188.998 48.5667 189.189 49.0417 189.573 49.425C189.956 49.8083 190.431 50 190.998 50Z" fill="#FF4747"/>
</g>
</svg>
