<svg width="380" height="522" viewBox="0 0 380 522" fill="none" xmlns="http://www.w3.org/2000/svg">
<rect width="173" height="32" rx="16" fill="#EDF2F7"/>
<rect x="207" width="173" height="32" rx="16" fill="#EDF2F7"/>
<rect y="51" width="380" height="341" rx="30" fill="#EDF2F7"/>
<rect x="24" y="88" width="173" height="22" rx="11" fill="#F7FAFC"/>
<rect x="24" y="129" width="289" height="22" rx="11" fill="#F7FAFC"/>
<rect x="24" y="170" width="173" height="22" rx="11" fill="#F7FAFC"/>
<rect x="24" y="229" width="173" height="22" rx="11" fill="#F7FAFC"/>
<rect x="24" y="270" width="289" height="22" rx="11" fill="#F7FAFC"/>
<rect x="24" y="311" width="173" height="22" rx="11" fill="#F7FAFC"/>
<rect y="411" width="173" height="22" rx="11" fill="#EDF2F7"/>
<rect y="452" width="88" height="70" rx="10" fill="#EDF2F7"/>
<rect x="117" y="467" width="237" height="14" rx="7" fill="#EDF2F7"/>
<rect x="117" y="493" width="112" height="14" rx="7" fill="#EDF2F7"/>
</svg>
