<svg width="43" height="44" viewBox="0 0 43 44" fill="none" xmlns="http://www.w3.org/2000/svg">
<circle cx="21.5462" cy="22.179" r="21.386" fill="#E8EDFF"/>
<mask id="mask0_937_2807" style="mask-type:alpha" maskUnits="userSpaceOnUse" x="10" y="11" width="22" height="22">
<rect x="10.6895" y="11.3213" width="21.057" height="21.057" fill="#D9D9D9"/>
</mask>
<g mask="url(#mask0_937_2807)">
<path d="M15.077 29.7459C14.5945 29.7459 14.1814 29.5741 13.8377 29.2304C13.4941 28.8868 13.3223 28.4737 13.3223 27.9911V15.7079C13.3223 15.2253 13.4941 14.8122 13.8377 14.4686C14.1814 14.1249 14.5945 13.9531 15.077 13.9531H22.096C22.3446 13.9531 22.553 14.0372 22.7211 14.2054C22.8893 14.3735 22.9734 14.5819 22.9734 14.8305C22.9734 15.0791 22.8893 15.2875 22.7211 15.4556C22.553 15.6238 22.3446 15.7079 22.096 15.7079H15.077V27.9911H27.3603V20.9721C27.3603 20.7235 27.4443 20.5152 27.6125 20.347C27.7807 20.1788 27.989 20.0947 28.2376 20.0947C28.4862 20.0947 28.6946 20.1788 28.8628 20.347C29.0309 20.5152 29.115 20.7235 29.115 20.9721V27.9911C29.115 28.4737 28.9432 28.8868 28.5996 29.2304C28.2559 29.5741 27.8428 29.7459 27.3603 29.7459H15.077ZM26.4829 19.2174C26.2343 19.2174 26.0259 19.1333 25.8578 18.9651C25.6896 18.797 25.6055 18.5886 25.6055 18.34V17.4626H24.7281C24.4795 17.4626 24.2712 17.3785 24.103 17.2104C23.9348 17.0422 23.8508 16.8338 23.8508 16.5852C23.8508 16.3367 23.9348 16.1283 24.103 15.9601C24.2712 15.792 24.4795 15.7079 24.7281 15.7079H25.6055V14.8305C25.6055 14.5819 25.6896 14.3735 25.8578 14.2054C26.0259 14.0372 26.2343 13.9531 26.4829 13.9531C26.7315 13.9531 26.9399 14.0372 27.108 14.2054C27.2762 14.3735 27.3603 14.5819 27.3603 14.8305V15.7079H28.2376C28.4862 15.7079 28.6946 15.792 28.8628 15.9601C29.0309 16.1283 29.115 16.3367 29.115 16.5852C29.115 16.8338 29.0309 17.0422 28.8628 17.2104C28.6946 17.3785 28.4862 17.4626 28.2376 17.4626H27.3603V18.34C27.3603 18.5886 27.2762 18.797 27.108 18.9651C26.9399 19.1333 26.7315 19.2174 26.4829 19.2174ZM16.8318 26.2364H25.6055C25.781 26.2364 25.9126 26.1559 26.0003 25.9951C26.0881 25.8342 26.0734 25.6807 25.9565 25.5345L23.5437 22.3101C23.4559 22.1931 23.339 22.1346 23.1927 22.1346C23.0465 22.1346 22.9295 22.1931 22.8418 22.3101L20.5606 25.359L18.9375 23.1875C18.8497 23.0705 18.7327 23.012 18.5865 23.012C18.4403 23.012 18.3233 23.0705 18.2356 23.1875L16.4808 25.5345C16.3638 25.6807 16.3492 25.8342 16.4369 25.9951C16.5247 26.1559 16.6563 26.2364 16.8318 26.2364Z" fill="#0066F5"/>
</g>
</svg>
