<svg width="117" height="106" viewBox="0 0 117 106" fill="none" xmlns="http://www.w3.org/2000/svg">
<rect width="117" height="106" rx="24" fill="#0066F5"/>
<path d="M6 53L11 49L11 57L6 53Z" fill="#95ADFF"/>
<rect x="15" y="43" width="21" height="20" rx="2" fill="white"/>
<rect opacity="0.74" x="15" y="43" width="21" height="20" rx="2" fill="#FDE047"/>
<path d="M101.133 27.845C103.565 27.6875 105 26.2875 105 24.31C105 22.6825 104.004 21.615 102.028 21.1075L101.133 20.88V18.3425C101.961 18.4825 102.602 18.8675 103.092 19.515L104.713 18.2025C104.105 17.0825 102.822 16.33 101.133 16.1725V15H100.086V16.155C97.7223 16.2775 96.2871 17.6075 96.2871 19.4975C96.2871 21.1075 97.334 22.21 99.3771 22.7175L100.086 22.8925V25.6225C99.0563 25.465 98.1782 24.905 97.6379 24.0475L96 25.36C96.6923 26.7775 98.1782 27.6875 100.086 27.845V29H101.133V27.845ZM100.086 20.6175C99.0225 20.3375 98.6679 19.9875 98.6679 19.445C98.6679 18.815 99.1576 18.395 100.086 18.3075V20.6175ZM102.602 24.3975C102.602 25.115 102.096 25.57 101.133 25.6575V23.155C102.214 23.435 102.602 23.785 102.602 24.3975Z" fill="#95ADFF"/>
<rect x="15" y="15" width="53" height="14" rx="3" fill="#95ADFF"/>
<g clip-path="url(#clip0_1019_1984)">
<path d="M94.7633 77.968H87.2148V92.008H94.7633V77.968Z" fill="#FF5F00"/>
<path d="M87.6942 84.9879C87.693 83.6358 87.9891 82.3011 88.5599 81.0849C89.1308 79.8686 89.9615 78.8028 90.9891 77.968C89.7165 76.9326 88.1881 76.2888 86.5787 76.11C84.9692 75.9312 83.3436 76.2246 81.8877 76.9569C80.4318 77.6891 79.2042 78.8306 78.3455 80.2508C77.4867 81.6709 77.0313 83.3125 77.0312 84.9879C77.0312 86.6634 77.4867 88.305 78.3455 89.7251C79.2042 91.1453 80.4318 92.2868 81.8877 93.019C83.3436 93.7512 84.9692 94.0447 86.5787 93.8659C88.1881 93.6871 89.7165 93.0433 90.9891 92.0079C89.9615 91.1731 89.1308 90.1072 88.5599 88.891C87.9891 87.6748 87.693 86.3401 87.6942 84.9879Z" fill="#EB001B"/>
<path d="M104.946 84.9879C104.946 86.6633 104.49 88.3049 103.632 89.7251C102.773 91.1453 101.545 92.2867 100.09 93.019C98.6337 93.7512 97.0081 94.0447 95.3987 93.8659C93.7892 93.6871 92.2609 93.0433 90.9883 92.0079C92.015 91.1723 92.8451 90.1062 93.4159 88.8902C93.9866 87.6742 94.2832 86.3399 94.2832 84.9879C94.2832 83.636 93.9866 82.3017 93.4159 81.0857C92.8451 79.8697 92.015 78.8036 90.9883 77.968C92.2609 76.9326 93.7892 76.2887 95.3987 76.11C97.0081 75.9312 98.6337 76.2247 100.09 76.9569C101.545 77.6892 102.773 78.8306 103.632 80.2508C104.49 81.671 104.946 83.3126 104.946 84.9879Z" fill="#F79E1B"/>
</g>
<defs>
<clipPath id="clip0_1019_1984">
<rect width="28" height="18" fill="white" transform="translate(77 76)"/>
</clipPath>
</defs>
</svg>
