<svg width="380" height="191" viewBox="0 0 380 191" fill="none" xmlns="http://www.w3.org/2000/svg">
<g clip-path="url(#clip0_943_1554)">
<rect width="380" height="191" rx="16" fill="#4ADE80"/>
<g filter="url(#filter0_ddd_943_1554)">
<path d="M224.821 -30.9522C207.966 -72.2783 159.11 -92.9414 133.179 -101.981H351V350.023H-25C-7.71265 301.379 71.8276 228.628 176.848 152.433C245.603 102.55 252.721 37.4559 224.821 -30.9522Z" fill="#4ADE80"/>
</g>
<g filter="url(#filter1_ddd_943_1554)">
<path d="M274.785 -30.9522C237.037 -90.3585 187.194 -92.9414 161.161 -101.981H388V350.023H73C73 298.365 131.603 228.628 237.037 152.433C306.062 102.55 314.474 31.5089 274.785 -30.9522Z" fill="#22C55E"/>
</g>
<g filter="url(#filter2_ddd_943_1554)">
<path d="M319 -33.2733C302.258 -71.3004 251 -95.9317 203 -101.981H444V348.295L194.385 345.371C194.385 293.911 251.454 204.206 295.239 151.46C349.17 86.4914 348.163 32.9689 319 -33.2733Z" fill="#16A34A"/>
</g>
<mask id="mask0_943_1554" style="mask-type:alpha" maskUnits="userSpaceOnUse" x="158" y="40" width="64" height="64">
<rect x="158" y="40" width="64" height="64" fill="#D9D9D9"/>
</mask>
<g mask="url(#mask0_943_1554)">
<path d="M190.001 98.6663C186.312 98.6663 182.845 97.9663 179.601 96.5663C176.356 95.1663 173.534 93.2663 171.134 90.8663C168.734 88.4663 166.834 85.6441 165.434 82.3997C164.034 79.1552 163.334 75.6886 163.334 71.9997C163.334 68.3108 164.034 64.8441 165.434 61.5997C166.834 58.3552 168.734 55.533 171.134 53.133C173.534 50.733 176.356 48.833 179.601 47.433C182.845 46.033 186.312 45.333 190.001 45.333C192.134 45.333 194.212 45.5775 196.234 46.0663C198.256 46.5552 200.201 47.2663 202.067 48.1997C202.734 48.5552 203.167 49.0886 203.367 49.7997C203.567 50.5108 203.445 51.1775 203.001 51.7997C202.556 52.4219 201.967 52.8219 201.234 52.9997C200.501 53.1775 199.778 53.0886 199.067 52.733C197.645 52.0663 196.167 51.5552 194.634 51.1997C193.101 50.8441 191.556 50.6663 190.001 50.6663C184.09 50.6663 179.056 52.7441 174.901 56.8997C170.745 61.0552 168.667 66.0886 168.667 71.9997C168.667 77.9108 170.745 82.9441 174.901 87.0997C179.056 91.2552 184.09 93.333 190.001 93.333C195.912 93.333 200.945 91.2552 205.101 87.0997C209.256 82.9441 211.334 77.9108 211.334 71.9997C211.334 71.6441 211.323 71.2997 211.301 70.9663C211.278 70.633 211.245 70.2886 211.201 69.933C211.112 69.1775 211.256 68.4552 211.634 67.7663C212.012 67.0775 212.578 66.6219 213.334 66.3997C214.045 66.1775 214.712 66.2441 215.334 66.5997C215.956 66.9552 216.312 67.4886 216.401 68.1997C216.49 68.8219 216.556 69.4441 216.601 70.0663C216.645 70.6886 216.667 71.333 216.667 71.9997C216.667 75.6886 215.967 79.1552 214.567 82.3997C213.167 85.6441 211.267 88.4663 208.867 90.8663C206.467 93.2663 203.645 95.1663 200.401 96.5663C197.156 97.9663 193.69 98.6663 190.001 98.6663ZM186.267 76.7997L211.067 51.933C211.556 51.4441 212.167 51.1886 212.901 51.1663C213.634 51.1441 214.267 51.3997 214.801 51.933C215.29 52.4219 215.534 53.0441 215.534 53.7997C215.534 54.5552 215.29 55.1775 214.801 55.6663L188.134 82.3997C187.601 82.933 186.978 83.1997 186.267 83.1997C185.556 83.1997 184.934 82.933 184.401 82.3997L176.801 74.7997C176.312 74.3108 176.067 73.6886 176.067 72.933C176.067 72.1775 176.312 71.5552 176.801 71.0663C177.29 70.5775 177.912 70.333 178.667 70.333C179.423 70.333 180.045 70.5775 180.534 71.0663L186.267 76.7997Z" fill="#1A202C"/>
</g>
<path d="M82.6303 131.792C82.6303 128.144 80.4943 126.2 76.3903 126.2H69.3343V143H72.8863V137.36H76.3903C80.4943 137.36 82.6303 135.44 82.6303 131.792ZM78.9343 131.792C78.9343 133.448 78.1423 134.168 76.1983 134.168H72.8863V129.464H76.1983C78.1423 129.464 78.9343 130.16 78.9343 131.792ZM93.7585 130.76V132.584C93.0625 131.24 91.5025 130.424 89.7505 130.424C86.5585 130.424 84.2305 133.088 84.2305 136.88C84.2305 140.672 86.5585 143.336 89.7505 143.336C91.5025 143.336 93.0625 142.52 93.7585 141.176V143H97.1185V130.76H93.7585ZM93.8305 136.88C93.8305 138.92 92.6545 140.264 90.7585 140.264C88.8625 140.264 87.6865 138.92 87.6865 136.88C87.6865 134.84 88.8625 133.496 90.7585 133.496C92.6545 133.496 93.8305 134.84 93.8305 136.88ZM108.276 130.76V137.168C108.276 138.8 107.316 139.736 105.78 139.736C104.364 139.736 103.74 138.992 103.74 137.384V130.76H100.332V138.272C100.332 141.152 101.916 142.832 104.484 142.832C106.236 142.832 107.652 142.04 108.324 140.768V141.752C108.324 143.936 107.052 145.136 104.916 145.136C103.668 145.136 102.348 144.728 101.316 143.984L99.8998 146.504C101.124 147.536 103.02 148.136 105.132 148.136C109.332 148.136 111.66 145.856 111.66 141.752V130.76H108.276ZM134.076 134.984C134.076 132.104 132.564 130.424 129.972 130.424C128.124 130.424 126.54 131.288 125.892 132.704C125.316 131.24 123.972 130.424 122.244 130.424C120.54 130.424 119.124 131.264 118.452 132.536V130.76H115.116V143H118.524V136.064C118.524 134.456 119.436 133.52 120.948 133.52C122.292 133.52 122.892 134.264 122.892 135.824V143H126.3V136.064C126.3 134.432 127.212 133.52 128.748 133.52C130.092 133.52 130.668 134.264 130.668 135.824V143H134.076V134.984ZM148.961 137.888C149.009 137.48 149.033 137.072 149.033 136.712C149.033 132.92 146.633 130.424 143.009 130.424C139.265 130.424 136.745 133.136 136.745 136.928C136.745 140.816 139.385 143.336 143.345 143.336C145.577 143.336 147.401 142.544 148.577 141.128L146.633 139.112C145.817 140 144.761 140.432 143.465 140.432C141.641 140.432 140.489 139.592 140.177 137.888H148.961ZM140.177 135.68C140.465 134.144 141.473 133.304 143.033 133.304C144.593 133.304 145.529 134.144 145.649 135.68H140.177ZM163.198 134.984C163.198 132.08 161.614 130.424 158.998 130.424C157.198 130.424 155.758 131.216 155.086 132.536V130.76H151.75V143H155.158V136.088C155.158 134.456 156.094 133.52 157.702 133.52C159.142 133.52 159.79 134.264 159.79 135.872V143H163.198V134.984ZM167.514 139.208C167.514 141.992 168.81 143.168 171.786 143.168C172.674 143.168 173.49 143.072 174.234 142.856V139.952C173.73 140.072 173.178 140.144 172.578 140.144C171.354 140.144 170.922 139.76 170.922 138.68V133.736H174.186V130.76H170.922V127.16H167.514V130.76H165.282V133.736H167.514V139.208ZM181.484 141.152C182.708 142.52 184.748 143.336 187.148 143.336C190.436 143.336 192.428 141.776 192.428 139.28C192.428 137.48 191.396 136.352 188.876 135.776L186.764 135.272C185.708 135.056 185.324 134.744 185.324 134.264C185.324 133.664 185.9 133.28 187.052 133.28C188.276 133.28 189.452 133.712 190.58 134.552L192.236 132.296C191.108 131.144 189.236 130.424 187.1 130.424C183.908 130.424 181.94 132.008 181.94 134.384C181.94 136.112 183.02 137.288 185.516 137.864L187.556 138.344C188.588 138.56 189.02 138.92 189.02 139.472C189.02 140.12 188.348 140.504 187.172 140.504C185.66 140.504 184.124 139.88 183.14 138.92L181.484 141.152ZM194.85 138.296C194.85 141.392 196.962 143.336 200.49 143.336C204.018 143.336 206.106 141.392 206.106 138.296V130.76H202.698V137.864C202.698 139.472 201.954 140.264 200.49 140.264C199.002 140.264 198.258 139.472 198.258 137.864V130.76H194.85V138.296ZM208.679 136.88C208.679 140.672 211.247 143.336 215.087 143.336C217.487 143.336 219.503 142.304 220.487 140.504L217.943 138.728C217.271 139.76 216.311 140.24 215.183 140.24C213.359 140.24 212.135 138.92 212.135 136.88C212.135 134.84 213.359 133.52 215.183 133.52C216.311 133.52 217.271 134 217.943 135.032L220.487 133.232C219.503 131.48 217.487 130.424 215.087 130.424C211.247 130.424 208.679 133.064 208.679 136.88ZM221.981 136.88C221.981 140.672 224.549 143.336 228.389 143.336C230.789 143.336 232.805 142.304 233.789 140.504L231.245 138.728C230.573 139.76 229.613 140.24 228.485 140.24C226.661 140.24 225.437 138.92 225.437 136.88C225.437 134.84 226.661 133.52 228.485 133.52C229.613 133.52 230.573 134 231.245 135.032L233.789 133.232C232.805 131.48 230.789 130.424 228.389 130.424C224.549 130.424 221.981 133.064 221.981 136.88ZM247.498 137.888C247.546 137.48 247.57 137.072 247.57 136.712C247.57 132.92 245.17 130.424 241.546 130.424C237.802 130.424 235.282 133.136 235.282 136.928C235.282 140.816 237.922 143.336 241.882 143.336C244.114 143.336 245.938 142.544 247.114 141.128L245.17 139.112C244.354 140 243.298 140.432 242.002 140.432C240.178 140.432 239.026 139.592 238.714 137.888H247.498ZM238.714 135.68C239.002 134.144 240.01 133.304 241.57 133.304C243.13 133.304 244.066 134.144 244.186 135.68H238.714ZM249.327 141.152C250.551 142.52 252.591 143.336 254.991 143.336C258.279 143.336 260.271 141.776 260.271 139.28C260.271 137.48 259.239 136.352 256.719 135.776L254.607 135.272C253.551 135.056 253.167 134.744 253.167 134.264C253.167 133.664 253.743 133.28 254.895 133.28C256.119 133.28 257.295 133.712 258.423 134.552L260.079 132.296C258.951 131.144 257.079 130.424 254.943 130.424C251.751 130.424 249.783 132.008 249.783 134.384C249.783 136.112 250.863 137.288 253.359 137.864L255.399 138.344C256.431 138.56 256.863 138.92 256.863 139.472C256.863 140.12 256.191 140.504 255.015 140.504C253.503 140.504 251.967 139.88 250.983 138.92L249.327 141.152ZM261.902 141.152C263.126 142.52 265.166 143.336 267.566 143.336C270.854 143.336 272.846 141.776 272.846 139.28C272.846 137.48 271.814 136.352 269.294 135.776L267.182 135.272C266.126 135.056 265.742 134.744 265.742 134.264C265.742 133.664 266.318 133.28 267.47 133.28C268.694 133.28 269.87 133.712 270.998 134.552L272.654 132.296C271.526 131.144 269.654 130.424 267.518 130.424C264.326 130.424 262.358 132.008 262.358 134.384C262.358 136.112 263.438 137.288 265.934 137.864L267.974 138.344C269.006 138.56 269.438 138.92 269.438 139.472C269.438 140.12 268.766 140.504 267.59 140.504C266.078 140.504 264.542 139.88 263.558 138.92L261.902 141.152ZM276.636 143H280.044V133.736H283.212V130.76H280.044V129.656C280.044 128.624 280.572 128.168 281.844 128.168C282.252 128.168 282.708 128.216 283.212 128.312V125.432C282.492 125.288 281.796 125.216 281.148 125.216C278.148 125.216 276.636 126.584 276.636 129.296V130.76H274.38V133.736H276.636V143ZM285.265 138.296C285.265 141.392 287.377 143.336 290.905 143.336C294.433 143.336 296.521 141.392 296.521 138.296V130.76H293.113V137.864C293.113 139.472 292.369 140.264 290.905 140.264C289.417 140.264 288.673 139.472 288.673 137.864V130.76H285.265V138.296ZM299.791 143H303.199V125.432H299.791V143ZM307.294 137.264H310.318L310.63 126.2H306.958L307.294 137.264ZM306.574 141.056C306.574 142.424 307.438 143.288 308.806 143.288C310.174 143.288 311.014 142.424 311.014 141.056C311.014 139.712 310.174 138.848 308.806 138.848C307.438 138.848 306.574 139.712 306.574 141.056Z" fill="#1A202C"/>
</g>
<defs>
<filter id="filter0_ddd_943_1554" x="-35" y="-110.981" width="396" height="472.005" filterUnits="userSpaceOnUse" color-interpolation-filters="sRGB">
<feFlood flood-opacity="0" result="BackgroundImageFix"/>
<feColorMatrix in="SourceAlpha" type="matrix" values="0 0 0 0 0 0 0 0 0 0 0 0 0 0 0 0 0 0 127 0" result="hardAlpha"/>
<feOffset dy="1"/>
<feGaussianBlur stdDeviation="5"/>
<feColorMatrix type="matrix" values="0 0 0 0 0.258824 0 0 0 0 0.305882 0 0 0 0 0.329412 0 0 0 0.12 0"/>
<feBlend mode="normal" in2="BackgroundImageFix" result="effect1_dropShadow_943_1554"/>
<feColorMatrix in="SourceAlpha" type="matrix" values="0 0 0 0 0 0 0 0 0 0 0 0 0 0 0 0 0 0 127 0" result="hardAlpha"/>
<feOffset dy="4"/>
<feGaussianBlur stdDeviation="2.5"/>
<feColorMatrix type="matrix" values="0 0 0 0 0.258824 0 0 0 0 0.305882 0 0 0 0 0.329412 0 0 0 0.14 0"/>
<feBlend mode="normal" in2="effect1_dropShadow_943_1554" result="effect2_dropShadow_943_1554"/>
<feColorMatrix in="SourceAlpha" type="matrix" values="0 0 0 0 0 0 0 0 0 0 0 0 0 0 0 0 0 0 127 0" result="hardAlpha"/>
<feMorphology radius="1" operator="erode" in="SourceAlpha" result="effect3_dropShadow_943_1554"/>
<feOffset dy="2"/>
<feGaussianBlur stdDeviation="2"/>
<feColorMatrix type="matrix" values="0 0 0 0 0.258824 0 0 0 0 0.305882 0 0 0 0 0.329412 0 0 0 0.2 0"/>
<feBlend mode="normal" in2="effect2_dropShadow_943_1554" result="effect3_dropShadow_943_1554"/>
<feBlend mode="normal" in="SourceGraphic" in2="effect3_dropShadow_943_1554" result="shape"/>
</filter>
<filter id="filter1_ddd_943_1554" x="63" y="-110.981" width="335" height="472.005" filterUnits="userSpaceOnUse" color-interpolation-filters="sRGB">
<feFlood flood-opacity="0" result="BackgroundImageFix"/>
<feColorMatrix in="SourceAlpha" type="matrix" values="0 0 0 0 0 0 0 0 0 0 0 0 0 0 0 0 0 0 127 0" result="hardAlpha"/>
<feOffset dy="1"/>
<feGaussianBlur stdDeviation="5"/>
<feColorMatrix type="matrix" values="0 0 0 0 0.258824 0 0 0 0 0.305882 0 0 0 0 0.329412 0 0 0 0.12 0"/>
<feBlend mode="normal" in2="BackgroundImageFix" result="effect1_dropShadow_943_1554"/>
<feColorMatrix in="SourceAlpha" type="matrix" values="0 0 0 0 0 0 0 0 0 0 0 0 0 0 0 0 0 0 127 0" result="hardAlpha"/>
<feOffset dy="4"/>
<feGaussianBlur stdDeviation="2.5"/>
<feColorMatrix type="matrix" values="0 0 0 0 0.258824 0 0 0 0 0.305882 0 0 0 0 0.329412 0 0 0 0.14 0"/>
<feBlend mode="normal" in2="effect1_dropShadow_943_1554" result="effect2_dropShadow_943_1554"/>
<feColorMatrix in="SourceAlpha" type="matrix" values="0 0 0 0 0 0 0 0 0 0 0 0 0 0 0 0 0 0 127 0" result="hardAlpha"/>
<feMorphology radius="1" operator="erode" in="SourceAlpha" result="effect3_dropShadow_943_1554"/>
<feOffset dy="2"/>
<feGaussianBlur stdDeviation="2"/>
<feColorMatrix type="matrix" values="0 0 0 0 0.258824 0 0 0 0 0.305882 0 0 0 0 0.329412 0 0 0 0.2 0"/>
<feBlend mode="normal" in2="effect2_dropShadow_943_1554" result="effect3_dropShadow_943_1554"/>
<feBlend mode="normal" in="SourceGraphic" in2="effect3_dropShadow_943_1554" result="shape"/>
</filter>
<filter id="filter2_ddd_943_1554" x="184.385" y="-110.981" width="269.615" height="470.276" filterUnits="userSpaceOnUse" color-interpolation-filters="sRGB">
<feFlood flood-opacity="0" result="BackgroundImageFix"/>
<feColorMatrix in="SourceAlpha" type="matrix" values="0 0 0 0 0 0 0 0 0 0 0 0 0 0 0 0 0 0 127 0" result="hardAlpha"/>
<feOffset dy="1"/>
<feGaussianBlur stdDeviation="5"/>
<feColorMatrix type="matrix" values="0 0 0 0 0.258824 0 0 0 0 0.305882 0 0 0 0 0.329412 0 0 0 0.12 0"/>
<feBlend mode="normal" in2="BackgroundImageFix" result="effect1_dropShadow_943_1554"/>
<feColorMatrix in="SourceAlpha" type="matrix" values="0 0 0 0 0 0 0 0 0 0 0 0 0 0 0 0 0 0 127 0" result="hardAlpha"/>
<feOffset dy="4"/>
<feGaussianBlur stdDeviation="2.5"/>
<feColorMatrix type="matrix" values="0 0 0 0 0.258824 0 0 0 0 0.305882 0 0 0 0 0.329412 0 0 0 0.14 0"/>
<feBlend mode="normal" in2="effect1_dropShadow_943_1554" result="effect2_dropShadow_943_1554"/>
<feColorMatrix in="SourceAlpha" type="matrix" values="0 0 0 0 0 0 0 0 0 0 0 0 0 0 0 0 0 0 127 0" result="hardAlpha"/>
<feMorphology radius="1" operator="erode" in="SourceAlpha" result="effect3_dropShadow_943_1554"/>
<feOffset dy="2"/>
<feGaussianBlur stdDeviation="2"/>
<feColorMatrix type="matrix" values="0 0 0 0 0.258824 0 0 0 0 0.305882 0 0 0 0 0.329412 0 0 0 0.2 0"/>
<feBlend mode="normal" in2="effect2_dropShadow_943_1554" result="effect3_dropShadow_943_1554"/>
<feBlend mode="normal" in="SourceGraphic" in2="effect3_dropShadow_943_1554" result="shape"/>
</filter>
<clipPath id="clip0_943_1554">
<rect width="380" height="191" rx="16" fill="white"/>
</clipPath>
</defs>
</svg>
