<svg width="428" height="259" viewBox="0 0 428 259" fill="none" xmlns="http://www.w3.org/2000/svg">
<g opacity="0.24" clip-path="url(#clip0_937_1715)">
<path fill-rule="evenodd" clip-rule="evenodd" d="M676.88 259H-338L-220.232 134.818L-0.839874 176.487L23.8482 208.412L284.919 175.115L407.196 108.439L558.128 143.081L589.603 108.639L621.726 89.349L637.707 88.7188L692.343 178.391L676.88 259Z" fill="#9AE0E2"/>
<mask id="mask0_937_1715" style="mask-type:luminance" maskUnits="userSpaceOnUse" x="-338" y="0" width="1066" height="258">
<path fill-rule="evenodd" clip-rule="evenodd" d="M-338 0H727.502V257.936H-338V0Z" fill="white"/>
</mask>
<g mask="url(#mask0_937_1715)">
<path fill-rule="evenodd" clip-rule="evenodd" d="M727.502 257.936H-338L-299.533 153.421L-279.005 156.138L-236.402 170.607L129.646 226.11L153.375 215.472L186.84 222.897L329.788 198.844L416.719 231.651L485.768 164.563L498.379 127.768L521.324 102.349L530.485 42.3637L545.547 44.397L548.753 0L566.247 8.13441L595.338 95.2327L610.107 90.1495L618.666 146.068L641.127 165.386L682.655 167.419L727.502 257.936Z" fill="#CFAC8C"/>
</g>
<path fill-rule="evenodd" clip-rule="evenodd" d="M758.838 258.999H-338L-319.528 179.699L-261.156 238.11L-232.587 202.845L-227.324 201.488L-170.915 66.1299L-159.319 122.717L-148.032 127.781L-136.934 231.954L-123.98 235.12L-114.458 249.684L147.765 236.917L202.3 199.131L221.121 201.769L236.085 166.501L308.012 197.065L386.711 245.415L432.79 213.461L488.779 209.755L503.612 169.958L517.687 177.769L528.635 144.963L555.219 127L575.551 144.182L628.722 150.432L758.838 258.999Z" fill="#6C6A75"/>
<path fill-rule="evenodd" clip-rule="evenodd" d="M307.833 201.683L383.177 256.611L272.876 259L269.056 227.001L239.632 172.299L307.833 201.683ZM220.293 201.428L205.883 214.605L216.545 226.483L182.954 234.669L-137.827 225.048L-150.226 131.943L-162.063 125.807L-169.325 94.0146L-222.055 258.999H262.056L241.121 220.239L220.293 201.428Z" fill="#474553"/>
<mask id="mask1_937_1715" style="mask-type:luminance" maskUnits="userSpaceOnUse" x="-338" y="166" width="382" height="92">
<path fill-rule="evenodd" clip-rule="evenodd" d="M-338 166.731H43.4088V257.927H-338V166.731Z" fill="white"/>
</mask>
<g mask="url(#mask1_937_1715)">
<path fill-rule="evenodd" clip-rule="evenodd" d="M-338 257.927H43.4091C19.6529 257.927 -4.10605 248.796 -22.2316 230.536L-58.3741 194.123C-76.5009 175.862 -100.259 166.731 -124.016 166.731H-170.575C-194.332 166.731 -218.09 175.862 -236.215 194.123L-272.359 230.536C-290.485 248.796 -314.242 257.927 -338 257.927Z" fill="#019444"/>
</g>
<path fill-rule="evenodd" clip-rule="evenodd" d="M-284.665 259H77.0829C65.4784 259 53.8739 254.578 45.0193 245.738L27.3657 228.11C18.511 219.269 6.90656 214.849 -4.69794 214.849H-202.886C-214.489 214.849 -226.095 219.269 -234.948 228.11L-252.601 245.738C-261.456 254.578 -273.061 259 -284.665 259Z" fill="#45BC54"/>
<path fill-rule="evenodd" clip-rule="evenodd" d="M54.0533 259H77.0828C65.4308 259 53.7788 254.579 44.8893 245.738L27.1621 228.11C18.2725 219.269 6.62056 214.849 -5.0328 214.849H-26.4742C-26.7391 214.849 -27.0027 214.851 -27.2676 214.857C-15.8819 215.054 -4.55623 219.471 4.13121 228.11L21.8584 245.738C30.7493 254.579 42.4013 259 54.0533 259Z" fill="#3CA247"/>
<path fill-rule="evenodd" clip-rule="evenodd" d="M385.496 259H390.134V254.353H385.496V259Z" fill="#8E6340"/>
<path fill-rule="evenodd" clip-rule="evenodd" d="M404.047 248.015C404.047 229.556 398.028 212.48 387.815 198.583C377.601 212.48 371.582 229.556 371.582 248.015C371.582 250.285 371.673 252.53 371.851 254.754C376.962 256.01 382.308 256.676 387.815 256.676C393.319 256.676 398.667 256.01 403.778 254.754C403.957 252.53 404.047 250.285 404.047 248.015Z" fill="#067265"/>
<path fill-rule="evenodd" clip-rule="evenodd" d="M404.047 248.014C404.047 229.555 398.028 212.48 387.814 198.583V256.676C393.319 256.676 398.667 256.009 403.778 254.753C403.957 252.529 404.047 250.282 404.047 248.014Z" fill="#05594F"/>
<path fill-rule="evenodd" clip-rule="evenodd" d="M121.142 259H128.098V252.028H121.142V259Z" fill="#8E6340"/>
<path fill-rule="evenodd" clip-rule="evenodd" d="M151.287 239.453C151.287 207.704 140.968 178.333 123.46 154.432C105.952 178.333 95.6338 207.704 95.6338 239.453C95.6338 243.355 95.7888 247.222 96.0946 251.045C104.855 253.205 114.022 254.352 123.46 254.352C132.898 254.352 142.065 253.205 150.826 251.045C151.132 247.222 151.287 243.355 151.287 239.453Z" fill="#387C3F"/>
<path fill-rule="evenodd" clip-rule="evenodd" d="M151.287 239.454C151.287 207.705 140.967 178.334 123.46 154.432V254.352C132.898 254.352 142.065 253.205 150.825 251.045C151.132 247.222 151.287 243.355 151.287 239.454Z" fill="#006738"/>
<path fill-rule="evenodd" clip-rule="evenodd" d="M26.0664 256.676H28.3853V245.058H26.0664V256.676Z" fill="#8E6340"/>
<path fill-rule="evenodd" clip-rule="evenodd" d="M26.0667 247.381C33.7303 247.381 39.9801 241.118 39.9801 233.438C39.9801 225.76 33.7303 219.496 26.0667 219.496C18.4044 219.496 12.1533 225.76 12.1533 233.438C12.1533 241.118 18.4044 247.381 26.0667 247.381Z" fill="#B5D153"/>
<path fill-rule="evenodd" clip-rule="evenodd" d="M26.0664 219.496C33.7504 219.496 39.9798 225.738 39.9798 233.438C39.9798 241.137 33.7504 247.381 26.0664 247.381V219.496Z" fill="#9CBA39"/>
</g>
<defs>
<clipPath id="clip0_937_1715">
<rect width="1104" height="259" fill="white" transform="translate(-338)"/>
</clipPath>
</defs>
</svg>
