<svg width="380" height="221" viewBox="0 0 380 221" fill="none" xmlns="http://www.w3.org/2000/svg">
<g clip-path="url(#clip0_937_2381)">
<rect width="380" height="221" rx="16" fill="#4ADE80"/>
<g filter="url(#filter0_ddd_937_2381)">
<path d="M224.821 -35.8143C207.966 -83.6314 159.11 -107.54 133.179 -118H351V405H-25C-7.71265 348.715 71.8276 264.537 176.848 176.374C245.603 118.656 252.721 43.3385 224.821 -35.8143Z" fill="#4ADE80"/>
</g>
<g filter="url(#filter1_ddd_937_2381)">
<path d="M274.785 -35.8143C237.037 -104.551 187.194 -107.54 161.161 -118H388V405H73C73 345.229 131.603 264.537 237.037 176.374C306.062 118.656 314.474 36.4575 274.785 -35.8143Z" fill="#22C55E"/>
</g>
<g filter="url(#filter2_ddd_937_2381)">
<path d="M319 -38.5C302.258 -82.5 251 -111 203 -118H444V403L194.385 399.617C194.385 340.074 251.454 236.28 295.239 175.249C349.17 100.076 348.163 38.1467 319 -38.5Z" fill="#16A34A"/>
</g>
<mask id="mask0_937_2381" style="mask-type:alpha" maskUnits="userSpaceOnUse" x="158" y="40" width="64" height="64">
<rect x="158" y="40" width="64" height="64" fill="#D9D9D9"/>
</mask>
<g mask="url(#mask0_937_2381)">
<path d="M190.001 98.6663C186.312 98.6663 182.845 97.9663 179.601 96.5663C176.356 95.1663 173.534 93.2663 171.134 90.8663C168.734 88.4663 166.834 85.6441 165.434 82.3997C164.034 79.1552 163.334 75.6886 163.334 71.9997C163.334 68.3108 164.034 64.8441 165.434 61.5997C166.834 58.3552 168.734 55.533 171.134 53.133C173.534 50.733 176.356 48.833 179.601 47.433C182.845 46.033 186.312 45.333 190.001 45.333C192.134 45.333 194.212 45.5775 196.234 46.0663C198.256 46.5552 200.201 47.2663 202.067 48.1997C202.734 48.5552 203.167 49.0886 203.367 49.7997C203.567 50.5108 203.445 51.1775 203.001 51.7997C202.556 52.4219 201.967 52.8219 201.234 52.9997C200.501 53.1775 199.778 53.0886 199.067 52.733C197.645 52.0663 196.167 51.5552 194.634 51.1997C193.101 50.8441 191.556 50.6663 190.001 50.6663C184.09 50.6663 179.056 52.7441 174.901 56.8997C170.745 61.0552 168.667 66.0886 168.667 71.9997C168.667 77.9108 170.745 82.9441 174.901 87.0997C179.056 91.2552 184.09 93.333 190.001 93.333C195.912 93.333 200.945 91.2552 205.101 87.0997C209.256 82.9441 211.334 77.9108 211.334 71.9997C211.334 71.6441 211.323 71.2997 211.301 70.9663C211.278 70.633 211.245 70.2886 211.201 69.933C211.112 69.1775 211.256 68.4552 211.634 67.7663C212.012 67.0775 212.578 66.6219 213.334 66.3997C214.045 66.1775 214.712 66.2441 215.334 66.5997C215.956 66.9552 216.312 67.4886 216.401 68.1997C216.49 68.8219 216.556 69.4441 216.601 70.0663C216.645 70.6886 216.667 71.333 216.667 71.9997C216.667 75.6886 215.967 79.1552 214.567 82.3997C213.167 85.6441 211.267 88.4663 208.867 90.8663C206.467 93.2663 203.645 95.1663 200.401 96.5663C197.156 97.9663 193.69 98.6663 190.001 98.6663ZM186.267 76.7997L211.067 51.933C211.556 51.4441 212.167 51.1886 212.901 51.1663C213.634 51.1441 214.267 51.3997 214.801 51.933C215.29 52.4219 215.534 53.0441 215.534 53.7997C215.534 54.5552 215.29 55.1775 214.801 55.6663L188.134 82.3997C187.601 82.933 186.978 83.1997 186.267 83.1997C185.556 83.1997 184.934 82.933 184.401 82.3997L176.801 74.7997C176.312 74.3108 176.067 73.6886 176.067 72.933C176.067 72.1775 176.312 71.5552 176.801 71.0663C177.29 70.5775 177.912 70.333 178.667 70.333C179.423 70.333 180.045 70.5775 180.534 71.0663L186.267 76.7997Z" fill="#1A202C"/>
</g>
<path d="M92.8763 126.2L88.9403 133.112L84.9803 126.2H80.9483L87.1403 136.376V143H90.7163V136.376L96.9083 126.2H92.8763ZM95.6329 136.88C95.6329 140.48 98.2249 143.336 102.161 143.336C106.097 143.336 108.713 140.504 108.713 136.88C108.713 133.256 106.097 130.424 102.161 130.424C98.2249 130.424 95.6329 133.256 95.6329 136.88ZM105.233 136.88C105.233 138.92 104.057 140.264 102.161 140.264C100.265 140.264 99.0889 138.92 99.0889 136.88C99.0889 134.84 100.265 133.496 102.161 133.496C104.057 133.496 105.233 134.84 105.233 136.88ZM111.243 138.296C111.243 141.392 113.355 143.336 116.883 143.336C120.411 143.336 122.499 141.392 122.499 138.296V130.76H119.091V137.864C119.091 139.472 118.347 140.264 116.883 140.264C115.395 140.264 114.651 139.472 114.651 137.864V130.76H111.243V138.296ZM133.688 130.688C133.4 130.568 133.064 130.52 132.656 130.52C131.024 130.52 129.704 131.36 129.104 132.776V130.76H125.768V143H129.176V137.072C129.176 134.768 130.112 133.784 132.2 133.784C132.68 133.784 133.184 133.832 133.688 133.928V130.688ZM140.653 141.152C141.877 142.52 143.917 143.336 146.317 143.336C149.605 143.336 151.597 141.776 151.597 139.28C151.597 137.48 150.565 136.352 148.045 135.776L145.933 135.272C144.877 135.056 144.493 134.744 144.493 134.264C144.493 133.664 145.069 133.28 146.221 133.28C147.445 133.28 148.621 133.712 149.749 134.552L151.405 132.296C150.277 131.144 148.405 130.424 146.269 130.424C143.077 130.424 141.109 132.008 141.109 134.384C141.109 136.112 142.189 137.288 144.685 137.864L146.725 138.344C147.757 138.56 148.189 138.92 148.189 139.472C148.189 140.12 147.517 140.504 146.341 140.504C144.829 140.504 143.293 139.88 142.309 138.92L140.653 141.152ZM154.019 138.296C154.019 141.392 156.131 143.336 159.659 143.336C163.187 143.336 165.275 141.392 165.275 138.296V130.76H161.867V137.864C161.867 139.472 161.123 140.264 159.659 140.264C158.171 140.264 157.427 139.472 157.427 137.864V130.76H154.019V138.296ZM181.432 136.88C181.432 133.088 179.104 130.424 175.888 130.424C174.16 130.424 172.696 131.192 171.952 132.464V125.432H168.544V143H171.88V141.152C172.576 142.52 174.136 143.336 175.888 143.336C179.104 143.336 181.432 140.672 181.432 136.88ZM177.952 136.88C177.952 138.92 176.776 140.264 174.88 140.264C172.984 140.264 171.832 138.92 171.832 136.88C171.832 134.84 172.984 133.496 174.88 133.496C176.776 133.496 177.952 134.84 177.952 136.88ZM203.15 134.984C203.15 132.104 201.638 130.424 199.046 130.424C197.198 130.424 195.614 131.288 194.966 132.704C194.39 131.24 193.046 130.424 191.318 130.424C189.614 130.424 188.198 131.264 187.526 132.536V130.76H184.19V143H187.598V136.064C187.598 134.456 188.51 133.52 190.022 133.52C191.366 133.52 191.966 134.264 191.966 135.824V143H195.374V136.064C195.374 134.432 196.286 133.52 197.822 133.52C199.166 133.52 199.742 134.264 199.742 135.824V143H203.15V134.984ZM206.131 126.92C206.131 128.144 206.971 128.96 208.243 128.96C209.515 128.96 210.355 128.144 210.355 126.92C210.355 125.696 209.515 124.88 208.243 124.88C206.971 124.88 206.131 125.696 206.131 126.92ZM206.539 143H209.947V130.76H206.539V143ZM212.481 141.152C213.705 142.52 215.745 143.336 218.145 143.336C221.433 143.336 223.425 141.776 223.425 139.28C223.425 137.48 222.393 136.352 219.873 135.776L217.761 135.272C216.705 135.056 216.321 134.744 216.321 134.264C216.321 133.664 216.897 133.28 218.049 133.28C219.273 133.28 220.449 133.712 221.577 134.552L223.233 132.296C222.105 131.144 220.233 130.424 218.097 130.424C214.905 130.424 212.937 132.008 212.937 134.384C212.937 136.112 214.017 137.288 216.513 137.864L218.553 138.344C219.585 138.56 220.017 138.92 220.017 139.472C220.017 140.12 219.345 140.504 218.169 140.504C216.657 140.504 215.121 139.88 214.137 138.92L212.481 141.152ZM225.056 141.152C226.28 142.52 228.32 143.336 230.72 143.336C234.008 143.336 236 141.776 236 139.28C236 137.48 234.968 136.352 232.448 135.776L230.336 135.272C229.28 135.056 228.896 134.744 228.896 134.264C228.896 133.664 229.472 133.28 230.624 133.28C231.848 133.28 233.024 133.712 234.152 134.552L235.808 132.296C234.68 131.144 232.808 130.424 230.672 130.424C227.48 130.424 225.512 132.008 225.512 134.384C225.512 136.112 226.592 137.288 229.088 137.864L231.128 138.344C232.16 138.56 232.592 138.92 232.592 139.472C232.592 140.12 231.92 140.504 230.744 140.504C229.232 140.504 227.696 139.88 226.712 138.92L225.056 141.152ZM238.254 126.92C238.254 128.144 239.094 128.96 240.366 128.96C241.638 128.96 242.478 128.144 242.478 126.92C242.478 125.696 241.638 124.88 240.366 124.88C239.094 124.88 238.254 125.696 238.254 126.92ZM238.662 143H242.07V130.76H238.662V143ZM244.869 136.88C244.869 140.48 247.461 143.336 251.397 143.336C255.333 143.336 257.949 140.504 257.949 136.88C257.949 133.256 255.333 130.424 251.397 130.424C247.461 130.424 244.869 133.256 244.869 136.88ZM254.469 136.88C254.469 138.92 253.293 140.264 251.397 140.264C249.501 140.264 248.325 138.92 248.325 136.88C248.325 134.84 249.501 133.496 251.397 133.496C253.293 133.496 254.469 134.84 254.469 136.88ZM272.143 134.984C272.143 132.08 270.559 130.424 267.943 130.424C266.143 130.424 264.703 131.216 264.031 132.536V130.76H260.695V143H264.103V136.088C264.103 134.456 265.039 133.52 266.647 133.52C268.087 133.52 268.735 134.264 268.735 135.872V143H272.143V134.984ZM280.679 126.92C280.679 128.144 281.519 128.96 282.791 128.96C284.063 128.96 284.903 128.144 284.903 126.92C284.903 125.696 284.063 124.88 282.791 124.88C281.519 124.88 280.679 125.696 280.679 126.92ZM281.087 143H284.495V130.76H281.087V143ZM287.03 141.152C288.254 142.52 290.294 143.336 292.694 143.336C295.982 143.336 297.974 141.776 297.974 139.28C297.974 137.48 296.942 136.352 294.422 135.776L292.31 135.272C291.254 135.056 290.87 134.744 290.87 134.264C290.87 133.664 291.446 133.28 292.598 133.28C293.822 133.28 294.998 133.712 296.126 134.552L297.782 132.296C296.654 131.144 294.782 130.424 292.646 130.424C289.454 130.424 287.486 132.008 287.486 134.384C287.486 136.112 288.566 137.288 291.062 137.864L293.102 138.344C294.134 138.56 294.566 138.92 294.566 139.472C294.566 140.12 293.894 140.504 292.718 140.504C291.206 140.504 289.67 139.88 288.686 138.92L287.03 141.152ZM124.797 171.152C126.021 172.52 128.061 173.336 130.461 173.336C133.749 173.336 135.741 171.776 135.741 169.28C135.741 167.48 134.709 166.352 132.189 165.776L130.077 165.272C129.021 165.056 128.637 164.744 128.637 164.264C128.637 163.664 129.213 163.28 130.365 163.28C131.589 163.28 132.765 163.712 133.893 164.552L135.549 162.296C134.421 161.144 132.549 160.424 130.413 160.424C127.221 160.424 125.253 162.008 125.253 164.384C125.253 166.112 126.333 167.288 128.829 167.864L130.869 168.344C131.901 168.56 132.333 168.92 132.333 169.472C132.333 170.12 131.661 170.504 130.485 170.504C128.973 170.504 127.437 169.88 126.453 168.92L124.797 171.152ZM138.163 168.296C138.163 171.392 140.275 173.336 143.803 173.336C147.331 173.336 149.419 171.392 149.419 168.296V160.76H146.011V167.864C146.011 169.472 145.267 170.264 143.803 170.264C142.315 170.264 141.571 169.472 141.571 167.864V160.76H138.163V168.296ZM151.992 166.88C151.992 170.672 154.56 173.336 158.4 173.336C160.8 173.336 162.816 172.304 163.8 170.504L161.256 168.728C160.584 169.76 159.624 170.24 158.496 170.24C156.672 170.24 155.448 168.92 155.448 166.88C155.448 164.84 156.672 163.52 158.496 163.52C159.624 163.52 160.584 164 161.256 165.032L163.8 163.232C162.816 161.48 160.8 160.424 158.4 160.424C154.56 160.424 151.992 163.064 151.992 166.88ZM165.294 166.88C165.294 170.672 167.862 173.336 171.702 173.336C174.102 173.336 176.118 172.304 177.102 170.504L174.558 168.728C173.886 169.76 172.926 170.24 171.798 170.24C169.974 170.24 168.75 168.92 168.75 166.88C168.75 164.84 169.974 163.52 171.798 163.52C172.926 163.52 173.886 164 174.558 165.032L177.102 163.232C176.118 161.48 174.102 160.424 171.702 160.424C167.862 160.424 165.294 163.064 165.294 166.88ZM190.811 167.888C190.859 167.48 190.883 167.072 190.883 166.712C190.883 162.92 188.483 160.424 184.859 160.424C181.115 160.424 178.595 163.136 178.595 166.928C178.595 170.816 181.235 173.336 185.195 173.336C187.427 173.336 189.251 172.544 190.427 171.128L188.483 169.112C187.667 170 186.611 170.432 185.315 170.432C183.491 170.432 182.339 169.592 182.027 167.888H190.811ZM182.027 165.68C182.315 164.144 183.323 163.304 184.883 163.304C186.443 163.304 187.379 164.144 187.499 165.68H182.027ZM192.641 171.152C193.865 172.52 195.905 173.336 198.305 173.336C201.593 173.336 203.585 171.776 203.585 169.28C203.585 167.48 202.553 166.352 200.033 165.776L197.921 165.272C196.865 165.056 196.481 164.744 196.481 164.264C196.481 163.664 197.057 163.28 198.209 163.28C199.433 163.28 200.609 163.712 201.737 164.552L203.393 162.296C202.265 161.144 200.393 160.424 198.257 160.424C195.065 160.424 193.097 162.008 193.097 164.384C193.097 166.112 194.177 167.288 196.673 167.864L198.713 168.344C199.745 168.56 200.177 168.92 200.177 169.472C200.177 170.12 199.505 170.504 198.329 170.504C196.817 170.504 195.281 169.88 194.297 168.92L192.641 171.152ZM205.216 171.152C206.44 172.52 208.48 173.336 210.88 173.336C214.168 173.336 216.16 171.776 216.16 169.28C216.16 167.48 215.128 166.352 212.608 165.776L210.496 165.272C209.44 165.056 209.056 164.744 209.056 164.264C209.056 163.664 209.632 163.28 210.784 163.28C212.008 163.28 213.184 163.712 214.312 164.552L215.968 162.296C214.84 161.144 212.968 160.424 210.832 160.424C207.64 160.424 205.672 162.008 205.672 164.384C205.672 166.112 206.752 167.288 209.248 167.864L211.288 168.344C212.32 168.56 212.752 168.92 212.752 169.472C212.752 170.12 212.08 170.504 210.904 170.504C209.392 170.504 207.856 169.88 206.872 168.92L205.216 171.152ZM219.95 173H223.358V163.736H226.526V160.76H223.358V159.656C223.358 158.624 223.886 158.168 225.158 158.168C225.566 158.168 226.022 158.216 226.526 158.312V155.432C225.806 155.288 225.11 155.216 224.462 155.216C221.462 155.216 219.95 156.584 219.95 159.296V160.76H217.694V163.736H219.95V173ZM228.579 168.296C228.579 171.392 230.691 173.336 234.219 173.336C237.747 173.336 239.835 171.392 239.835 168.296V160.76H236.427V167.864C236.427 169.472 235.683 170.264 234.219 170.264C232.731 170.264 231.987 169.472 231.987 167.864V160.76H228.579V168.296ZM243.104 173H246.512V155.432H243.104V173ZM250.608 167.264H253.632L253.944 156.2H250.272L250.608 167.264ZM249.888 171.056C249.888 172.424 250.752 173.288 252.12 173.288C253.488 173.288 254.328 172.424 254.328 171.056C254.328 169.712 253.488 168.848 252.12 168.848C250.752 168.848 249.888 169.712 249.888 171.056Z" fill="#1A202C"/>
</g>
<defs>
<filter id="filter0_ddd_937_2381" x="-35" y="-127" width="396" height="543" filterUnits="userSpaceOnUse" color-interpolation-filters="sRGB">
<feFlood flood-opacity="0" result="BackgroundImageFix"/>
<feColorMatrix in="SourceAlpha" type="matrix" values="0 0 0 0 0 0 0 0 0 0 0 0 0 0 0 0 0 0 127 0" result="hardAlpha"/>
<feOffset dy="1"/>
<feGaussianBlur stdDeviation="5"/>
<feColorMatrix type="matrix" values="0 0 0 0 0.258824 0 0 0 0 0.305882 0 0 0 0 0.329412 0 0 0 0.12 0"/>
<feBlend mode="normal" in2="BackgroundImageFix" result="effect1_dropShadow_937_2381"/>
<feColorMatrix in="SourceAlpha" type="matrix" values="0 0 0 0 0 0 0 0 0 0 0 0 0 0 0 0 0 0 127 0" result="hardAlpha"/>
<feOffset dy="4"/>
<feGaussianBlur stdDeviation="2.5"/>
<feColorMatrix type="matrix" values="0 0 0 0 0.258824 0 0 0 0 0.305882 0 0 0 0 0.329412 0 0 0 0.14 0"/>
<feBlend mode="normal" in2="effect1_dropShadow_937_2381" result="effect2_dropShadow_937_2381"/>
<feColorMatrix in="SourceAlpha" type="matrix" values="0 0 0 0 0 0 0 0 0 0 0 0 0 0 0 0 0 0 127 0" result="hardAlpha"/>
<feMorphology radius="1" operator="erode" in="SourceAlpha" result="effect3_dropShadow_937_2381"/>
<feOffset dy="2"/>
<feGaussianBlur stdDeviation="2"/>
<feColorMatrix type="matrix" values="0 0 0 0 0.258824 0 0 0 0 0.305882 0 0 0 0 0.329412 0 0 0 0.2 0"/>
<feBlend mode="normal" in2="effect2_dropShadow_937_2381" result="effect3_dropShadow_937_2381"/>
<feBlend mode="normal" in="SourceGraphic" in2="effect3_dropShadow_937_2381" result="shape"/>
</filter>
<filter id="filter1_ddd_937_2381" x="63" y="-127" width="335" height="543" filterUnits="userSpaceOnUse" color-interpolation-filters="sRGB">
<feFlood flood-opacity="0" result="BackgroundImageFix"/>
<feColorMatrix in="SourceAlpha" type="matrix" values="0 0 0 0 0 0 0 0 0 0 0 0 0 0 0 0 0 0 127 0" result="hardAlpha"/>
<feOffset dy="1"/>
<feGaussianBlur stdDeviation="5"/>
<feColorMatrix type="matrix" values="0 0 0 0 0.258824 0 0 0 0 0.305882 0 0 0 0 0.329412 0 0 0 0.12 0"/>
<feBlend mode="normal" in2="BackgroundImageFix" result="effect1_dropShadow_937_2381"/>
<feColorMatrix in="SourceAlpha" type="matrix" values="0 0 0 0 0 0 0 0 0 0 0 0 0 0 0 0 0 0 127 0" result="hardAlpha"/>
<feOffset dy="4"/>
<feGaussianBlur stdDeviation="2.5"/>
<feColorMatrix type="matrix" values="0 0 0 0 0.258824 0 0 0 0 0.305882 0 0 0 0 0.329412 0 0 0 0.14 0"/>
<feBlend mode="normal" in2="effect1_dropShadow_937_2381" result="effect2_dropShadow_937_2381"/>
<feColorMatrix in="SourceAlpha" type="matrix" values="0 0 0 0 0 0 0 0 0 0 0 0 0 0 0 0 0 0 127 0" result="hardAlpha"/>
<feMorphology radius="1" operator="erode" in="SourceAlpha" result="effect3_dropShadow_937_2381"/>
<feOffset dy="2"/>
<feGaussianBlur stdDeviation="2"/>
<feColorMatrix type="matrix" values="0 0 0 0 0.258824 0 0 0 0 0.305882 0 0 0 0 0.329412 0 0 0 0.2 0"/>
<feBlend mode="normal" in2="effect2_dropShadow_937_2381" result="effect3_dropShadow_937_2381"/>
<feBlend mode="normal" in="SourceGraphic" in2="effect3_dropShadow_937_2381" result="shape"/>
</filter>
<filter id="filter2_ddd_937_2381" x="184.385" y="-127" width="269.615" height="541" filterUnits="userSpaceOnUse" color-interpolation-filters="sRGB">
<feFlood flood-opacity="0" result="BackgroundImageFix"/>
<feColorMatrix in="SourceAlpha" type="matrix" values="0 0 0 0 0 0 0 0 0 0 0 0 0 0 0 0 0 0 127 0" result="hardAlpha"/>
<feOffset dy="1"/>
<feGaussianBlur stdDeviation="5"/>
<feColorMatrix type="matrix" values="0 0 0 0 0.258824 0 0 0 0 0.305882 0 0 0 0 0.329412 0 0 0 0.12 0"/>
<feBlend mode="normal" in2="BackgroundImageFix" result="effect1_dropShadow_937_2381"/>
<feColorMatrix in="SourceAlpha" type="matrix" values="0 0 0 0 0 0 0 0 0 0 0 0 0 0 0 0 0 0 127 0" result="hardAlpha"/>
<feOffset dy="4"/>
<feGaussianBlur stdDeviation="2.5"/>
<feColorMatrix type="matrix" values="0 0 0 0 0.258824 0 0 0 0 0.305882 0 0 0 0 0.329412 0 0 0 0.14 0"/>
<feBlend mode="normal" in2="effect1_dropShadow_937_2381" result="effect2_dropShadow_937_2381"/>
<feColorMatrix in="SourceAlpha" type="matrix" values="0 0 0 0 0 0 0 0 0 0 0 0 0 0 0 0 0 0 127 0" result="hardAlpha"/>
<feMorphology radius="1" operator="erode" in="SourceAlpha" result="effect3_dropShadow_937_2381"/>
<feOffset dy="2"/>
<feGaussianBlur stdDeviation="2"/>
<feColorMatrix type="matrix" values="0 0 0 0 0.258824 0 0 0 0 0.305882 0 0 0 0 0.329412 0 0 0 0.2 0"/>
<feBlend mode="normal" in2="effect2_dropShadow_937_2381" result="effect3_dropShadow_937_2381"/>
<feBlend mode="normal" in="SourceGraphic" in2="effect3_dropShadow_937_2381" result="shape"/>
</filter>
<clipPath id="clip0_937_2381">
<rect width="380" height="221" rx="16" fill="white"/>
</clipPath>
</defs>
</svg>
