<svg width="117" height="106" viewBox="0 0 117 106" fill="none" xmlns="http://www.w3.org/2000/svg">
<rect width="117" height="106" rx="24" fill="#1A202C"/>
<g clip-path="url(#clip0_1019_1967)">
<path d="M89.6679 80C86.5478 80 83.7465 81.5976 83.7465 84.5294C83.7465 87.9059 88.695 88.1365 88.695 89.8165C88.695 90.5247 87.8563 91.1671 86.4472 91.1671C84.4342 91.1671 82.9245 90.2776 82.9245 90.2776L82.2871 93.2424C82.2871 93.2424 84.0149 94 86.3298 94C89.7518 94 92.4358 92.3365 92.4358 89.3388C92.4358 85.7812 87.4705 85.5506 87.4705 83.9859C87.4705 83.4259 88.1582 82.8165 89.5673 82.8165C91.1609 82.8165 92.4693 83.4588 92.4693 83.4588L93.1067 80.5929C93.09 80.5929 91.6641 80 89.6679 80ZM61.0839 80.2141L61 80.6424C61 80.6424 62.3084 80.8729 63.4994 81.3506C65.0259 81.8941 65.1266 82.2071 65.395 83.1788L68.1963 93.7694H71.9539L77.7076 80.2141H73.9668L70.2596 89.4376L68.7499 81.6141C68.6157 80.7247 67.9112 80.2141 67.0389 80.2141H61.0839ZM79.2173 80.2141L76.2817 93.7694H79.8547L82.7735 80.2141H79.2173ZM99.1121 80.2141C98.2566 80.2141 97.8037 80.6588 97.4682 81.4494L92.2345 93.7694H95.9752L96.6965 91.7106H101.259L101.695 93.7694H105L102.132 80.2141H99.1121ZM99.5986 83.8871L100.706 88.9765H97.7366L99.5986 83.8871Z" fill="#E8EDFF"/>
</g>
<path d="M6 53L11 49L11 57L6 53Z" fill="#5D6A83"/>
<rect x="15" y="43" width="21" height="20" rx="2" fill="white"/>
<rect opacity="0.74" x="15" y="43" width="21" height="20" rx="2" fill="#FDE047"/>
<path d="M96.0732 29V24.5028H95V23.1555H96.0732V21.8445H95V20.4972H96.0732V16H98.9784L100.422 20.4972H102.106V16H104.16V20.4972H105.214V21.8445H104.16V23.1555H105.214V24.5028H104.16V29H101.236L99.7556 24.5028H98.1272V29H96.0732ZM98.1272 23.1555H99.3485L98.9414 21.8445H98.0902L98.1272 23.1555ZM102.161 26.1597H102.254L102.18 24.5028H101.68L102.161 26.1597ZM98.0532 20.4972H98.5713L98.0347 18.7493H97.9607L98.0532 20.4972ZM101.291 23.1555H102.143L102.106 21.8445H100.866L101.291 23.1555Z" fill="#96A3BE"/>
<rect x="15" y="15" width="53" height="14" rx="3" fill="#5D6A83"/>
<defs>
<clipPath id="clip0_1019_1967">
<rect width="44" height="14" fill="white" transform="translate(61 80)"/>
</clipPath>
</defs>
</svg>
